<svg width="493" height="170" viewBox="0 0 493 170" fill="none" xmlns="http://www.w3.org/2000/svg">
<path d="M31.665 45.9463C31.5671 46.3382 31.5181 46.7581 31.5181 47.2061V47.689C31.5181 48.4308 31.5671 48.9627 31.665 49.2847C31.665 51.3983 31.658 53.029 31.644 54.1768C31.5601 54.5407 24.6523 54.7227 10.9209 54.7227C10.291 54.7227 9.24821 54.7087 7.79248 54.6807C7.56852 54.2607 7.45654 53.5679 7.45654 52.6021L7.49854 51.2373V46.4712L7.51953 42.4819V38.5347L7.54053 32.1729C7.54053 30.9971 7.52653 29.8913 7.49854 28.8555V28.6245L7.43555 25.6011C7.43555 23.8234 7.58252 22.6686 7.87646 22.1367C8.15641 22.1507 8.54134 22.1577 9.03125 22.1577H10.0391L13.5664 22.1157C17.5837 22.1157 19.7952 22.3677 20.2012 22.8716L20.0332 30.1992L19.9702 36.3511L19.9492 36.603L19.8652 45.3374L20.7051 45.8203C23.2386 45.6663 25.6882 45.5894 28.0537 45.5894C30.4333 45.5894 31.637 45.7083 31.665 45.9463ZM37.4146 28.0156L37.3096 22.4937C37.3236 22.4937 37.3726 22.5146 37.4566 22.5566C48.0946 22.3747 56.1081 22.2767 61.4971 22.2627C61.5531 22.2907 61.5951 22.3327 61.6231 22.3887V28.3096C61.6231 28.8835 61.6091 29.3524 61.5811 29.7163C61.5111 29.9403 61.0982 30.0522 60.3423 30.0522H60.1954C56.808 30.0522 53.2807 29.9963 49.6133 29.8843C49.6133 30.0103 49.5923 30.2342 49.5504 30.5562C49.5224 30.8781 49.5014 31.109 49.4874 31.249L49.3824 32.0469C49.3124 32.5788 49.2634 33.5026 49.2354 34.8184L55.7442 34.6714C56.864 34.6434 57.6758 34.6294 58.1797 34.6294H58.5157C59.3695 34.6294 59.9294 34.6574 60.1954 34.7134C60.4613 34.7554 60.5943 34.8953 60.5943 35.1333L60.5733 35.3013V35.8052L60.6783 41.2012L60.6573 41.2222V41.2012C56.4021 41.4111 53.0007 41.5161 50.4532 41.5161H49.4664V46.5972L60.8672 46.2402C61.4971 46.2402 61.8961 46.3312 62.064 46.5132C62.05 46.8771 62.043 47.395 62.043 48.0669L62.19 53.7778C62.19 54.1278 62.036 54.3307 61.7281 54.3867L54.7574 54.3237C53.3856 54.3237 50.6561 54.3727 46.5689 54.4707L43.1255 54.5547C40.69 54.6387 38.8843 54.6807 37.7086 54.6807L37.6456 54.6387H37.6666C37.5266 54.4987 37.3936 54.3657 37.2676 54.2397V53.5049L37.3936 31.0601L37.4146 28.0156ZM93.9537 30.1782C93.9537 30.6401 93.9047 30.8711 93.8068 30.8711C93.8068 30.8711 91.2732 30.8501 86.2062 30.8081C86.1782 32.1659 86.1642 34.2865 86.1642 37.1699C86.1642 40.0534 86.1712 42.055 86.1852 43.1748L86.2692 54.3027C86.1992 54.4987 86.0592 54.6037 85.8492 54.6177L81.4191 54.5547L81.3981 54.5757L80.0123 54.5547H76.17C75.1342 54.5547 74.3574 54.5617 73.8395 54.5757L73.4825 54.2607C73.4685 54.2467 73.3776 54.1348 73.2096 53.9248C73.2096 52.693 73.2586 49.9565 73.3566 45.7153L73.5875 34.5454L73.5455 34.0205C73.4475 32.6348 73.3496 31.8159 73.2516 31.564C73.1676 31.298 72.9926 31.158 72.7267 31.144C72.4607 31.116 72.2648 31.1021 72.1388 31.1021L71.2989 31.144L66.0919 31.0601C65.9099 30.6961 65.819 29.8773 65.819 28.6035L65.861 26.7559V26.189C65.847 23.9494 65.826 22.7526 65.798 22.5986C65.826 22.5986 65.882 22.6126 65.9659 22.6406L92.694 22.4097C93.2399 22.4097 93.5828 22.4517 93.7228 22.5356C93.8627 22.6056 93.9327 22.7456 93.9327 22.9556V28.4985L93.9537 30.1782ZM105.561 21.9268L108.228 21.8848C110.369 21.8848 111.44 21.9618 111.44 22.1157C111.412 22.1717 111.398 22.2487 111.398 22.3467C111.202 22.8226 110.957 23.5015 110.663 24.3833C110.369 25.2651 110.18 25.825 110.096 26.063L109.487 27.7637C108.466 30.8291 107.605 33.2367 106.905 34.9863C106.317 35.4482 104.91 35.6792 102.685 35.6792H100.774L100.501 35.7002H99.0734C98.4295 35.7002 98.0516 35.6442 97.9396 35.5322L97.7297 35.2383C97.7577 35.0983 97.8067 34.9023 97.8766 34.6504C97.9466 34.3844 97.9956 34.1815 98.0236 34.0415L98.8215 31.1021C98.7655 31.0881 98.6395 31.0391 98.4435 30.9551C100.193 26.4059 101.18 23.4035 101.404 21.9478C101.572 21.9338 101.796 21.9268 102.076 21.9268H105.561ZM107.136 34.7764L106.779 35.3643L106.905 34.9863C107.017 34.9023 107.094 34.8324 107.136 34.7764ZM107.178 34.7134L107.136 34.7764L107.178 34.7134ZM116.98 45.3374L128.087 45.1484C128.367 45.1484 128.598 45.3864 128.78 45.8623C128.975 46.3382 129.164 46.7161 129.346 46.9961C129.78 47.668 130.494 48.0039 131.488 48.0039C132.496 48.0039 133.308 47.7729 133.924 47.311C134.539 46.8351 134.847 46.2262 134.847 45.4844C134.847 44.7425 134.658 44.2386 134.281 43.9727C133.903 43.6927 133.49 43.4268 133.042 43.1748C132.594 42.9089 131.929 42.7059 131.047 42.5659C130.179 42.4259 129.703 42.342 129.619 42.314H129.661L128.465 41.999C127.695 41.859 127.051 41.7051 126.533 41.5371C123.188 40.6413 120.766 39.5145 119.268 38.1567C117.785 36.799 117.043 34.9723 117.043 32.6768C117.043 31.0111 117.351 29.5133 117.967 28.1836C118.582 26.8538 119.387 25.769 120.381 24.9292C123.251 22.5076 127.212 21.2969 132.265 21.2969C136.282 21.2969 139.439 22.0247 141.734 23.4805H141.713C143.183 24.5443 144.191 25.5941 144.737 26.6299C145.282 27.6517 145.625 28.9185 145.765 30.4302L145.219 30.9761C141.538 31.116 138.277 31.186 135.435 31.186C134.581 31.186 134.071 30.9341 133.903 30.4302C133.833 30.2202 133.756 30.0103 133.672 29.8003C133.476 29.2964 132.846 29.0444 131.782 29.0444H131.698C130.872 29.0444 130.165 29.2404 129.577 29.6323C128.989 30.0103 128.689 30.3812 128.675 30.7451C128.675 31.109 128.752 31.41 128.906 31.6479C129.073 31.8859 129.248 32.0749 129.43 32.2148C129.612 32.3548 129.892 32.5018 130.27 32.6558C130.648 32.7957 130.928 32.8937 131.11 32.9497C131.306 32.9917 131.607 33.0687 132.013 33.1807L132.748 33.3696C133.042 33.4536 133.896 33.6636 135.309 33.9995C136.737 34.3354 137.927 34.6574 138.879 34.9653V34.9443C141.86 35.9521 143.89 37.2119 144.968 38.7236C146.059 40.2214 146.605 41.971 146.605 43.9727C146.605 49.3057 143.421 52.763 137.052 54.3447C135.204 54.8066 133.231 55.1356 131.131 55.3315C128.556 55.3315 126.008 54.9536 123.489 54.1978C120.969 53.4419 119.282 52.2101 118.428 50.5024C117.855 49.6766 117.47 48.9207 117.274 48.2349C117.078 47.535 116.917 46.5622 116.791 45.3164C116.833 45.3304 116.896 45.3374 116.98 45.3374Z" fill="black"/>
<path d="M31.665 45.9463L32.6352 46.1888L32.6796 46.0112L32.6582 45.8294L31.665 45.9463ZM31.665 49.2847H32.665V49.1359L32.6217 48.9935L31.665 49.2847ZM31.644 54.1768L32.6184 54.4016L32.6427 54.2967L32.644 54.189L31.644 54.1768ZM7.79248 54.6807L6.91013 55.1513L7.18636 55.6692L7.77325 55.6805L7.79248 54.6807ZM7.45654 52.6021L6.45702 52.5713L6.45654 52.5867V52.6021H7.45654ZM7.49854 51.2373L8.49806 51.2681L8.49854 51.2527V51.2373H7.49854ZM7.49854 46.4712L6.49854 46.4659V46.4712H7.49854ZM7.51953 42.4819L8.51953 42.4872V42.4819H7.51953ZM7.51953 38.5347L6.51953 38.5314V38.5347H7.51953ZM7.54053 32.1729L8.54053 32.1762V32.1729H7.54053ZM7.49854 28.8555H6.49854V28.869L6.4989 28.8825L7.49854 28.8555ZM7.49854 28.6245H8.49854V28.6141L8.49832 28.6037L7.49854 28.6245ZM7.43555 25.6011H6.43555V25.6115L6.43576 25.6219L7.43555 25.6011ZM7.87646 22.1367L7.9264 21.138L7.30309 21.1068L7.00122 21.653L7.87646 22.1367ZM10.0391 22.1577V23.1578L10.051 23.1576L10.0391 22.1577ZM13.5664 22.1157V21.1157L13.5545 21.1158L13.5664 22.1157ZM20.2012 22.8716L21.2009 22.8945L21.2093 22.529L20.9799 22.2443L20.2012 22.8716ZM20.0332 30.1992L19.0334 30.1763L19.0333 30.189L20.0332 30.1992ZM19.9702 36.3511L20.9668 36.4341L20.9698 36.3978L20.9702 36.3613L19.9702 36.3511ZM19.9492 36.603L18.9527 36.52L18.9496 36.5566L18.9493 36.5934L19.9492 36.603ZM19.8652 45.3374L18.8653 45.3278L18.8597 45.9127L19.3668 46.2043L19.8652 45.3374ZM20.7051 45.8203L20.2066 46.6872L20.4665 46.8367L20.7657 46.8185L20.7051 45.8203ZM30.6949 45.7038C30.5751 46.1831 30.5181 46.6851 30.5181 47.2061H32.5181C32.5181 46.8312 32.559 46.4934 32.6352 46.1888L30.6949 45.7038ZM30.5181 47.2061V47.689H32.5181V47.2061H30.5181ZM30.5181 47.689C30.5181 48.4401 30.5639 49.101 30.7084 49.5758L32.6217 48.9935C32.5703 48.8244 32.5181 48.4216 32.5181 47.689H30.5181ZM30.665 49.2847C30.665 51.397 30.658 53.0229 30.6441 54.1646L32.644 54.189C32.658 53.035 32.665 51.3996 32.665 49.2847H30.665ZM30.6697 53.9519C30.7501 53.6033 30.9854 53.4307 31.0479 53.3875C31.1312 53.33 31.1975 53.3064 31.2062 53.3032C31.2291 53.2949 31.2107 53.3036 31.1175 53.3202C30.9432 53.3512 30.6521 53.3852 30.2238 53.4186C29.3763 53.4848 28.0967 53.5411 26.3739 53.5865C22.9337 53.6772 17.7846 53.7227 10.9209 53.7227V55.7227C17.7886 55.7227 22.9591 55.6772 26.4266 55.5858C28.1576 55.5402 29.479 55.4829 30.3794 55.4126C30.825 55.3778 31.1947 55.3378 31.4678 55.2892C31.5984 55.266 31.7505 55.2335 31.8905 55.1825C31.9577 55.158 32.0692 55.1128 32.1845 55.0332C32.2789 54.968 32.5327 54.773 32.6184 54.4016L30.6697 53.9519ZM10.9209 53.7227C10.3015 53.7227 9.26711 53.7088 7.81171 53.6808L7.77325 55.6805C9.22931 55.7085 10.2805 55.7227 10.9209 55.7227V53.7227ZM8.67483 54.2101C8.57358 54.0202 8.45654 53.5398 8.45654 52.6021H6.45654C6.45654 53.5959 6.56347 54.5013 6.91013 55.1513L8.67483 54.2101ZM8.45607 52.6328L8.49806 51.2681L6.49901 51.2066L6.45702 52.5713L8.45607 52.6328ZM8.49854 51.2373V46.4712H6.49854V51.2373H8.49854ZM8.49852 46.4765L8.51952 42.4872L6.51955 42.4767L6.49855 46.4659L8.49852 46.4765ZM8.51953 42.4819V38.5347H6.51953V42.4819H8.51953ZM8.51953 38.538L8.54052 32.1762L6.54053 32.1696L6.51954 38.5314L8.51953 38.538ZM8.54053 32.1729C8.54053 30.9892 8.52644 29.8744 8.49817 28.8285L6.4989 28.8825C6.52662 29.9082 6.54053 31.0049 6.54053 32.1729H8.54053ZM8.49854 28.8555V28.6245H6.49854V28.8555H8.49854ZM8.49832 28.6037L8.43533 25.5802L6.43576 25.6219L6.49875 28.6453L8.49832 28.6037ZM8.43555 25.6011C8.43555 24.7349 8.47161 24.0478 8.53777 23.528C8.60719 22.9826 8.69912 22.7156 8.75171 22.6204L7.00122 21.653C6.75986 22.0898 6.63133 22.6661 6.55378 23.2755C6.47297 23.9104 6.43555 24.6895 6.43555 25.6011H8.43555ZM7.82653 23.1355C8.13093 23.1507 8.53499 23.1577 9.03125 23.1577V21.1577C8.54769 21.1577 8.18189 21.1507 7.9264 21.138L7.82653 23.1355ZM9.03125 23.1577H10.0391V21.1577H9.03125V23.1577ZM10.051 23.1576L13.5783 23.1157L13.5545 21.1158L10.0272 21.1578L10.051 23.1576ZM13.5664 23.1157C15.5621 23.1157 17.0751 23.1787 18.1248 23.2983C18.6523 23.3584 19.0301 23.4293 19.2807 23.5016C19.5871 23.5901 19.5304 23.6329 19.4224 23.4989L20.9799 22.2443C20.669 21.8583 20.1836 21.6806 19.8356 21.5801C19.4318 21.4635 18.9296 21.377 18.3512 21.3111C17.1893 21.1787 15.588 21.1157 13.5664 21.1157V23.1157ZM19.2014 22.8487L19.0335 30.1763L21.0329 30.2221L21.2009 22.8945L19.2014 22.8487ZM19.0333 30.189L18.9703 36.3408L20.9702 36.3613L21.0332 30.2095L19.0333 30.189ZM18.9737 36.268L18.9527 36.52L20.9458 36.6861L20.9668 36.4341L18.9737 36.268ZM18.9493 36.5934L18.8653 45.3278L20.8652 45.347L20.9492 36.6126L18.9493 36.5934ZM19.3668 46.2043L20.2066 46.6872L21.2035 44.9534L20.3637 44.4705L19.3668 46.2043ZM20.7657 46.8185C23.2805 46.6656 25.7098 46.5894 28.0537 46.5894V44.5894C25.6665 44.5894 23.1967 44.667 20.6444 44.8222L20.7657 46.8185ZM28.0537 46.5894C29.2356 46.5894 30.0915 46.6192 30.6429 46.6737C30.9263 46.7018 31.0808 46.732 31.1453 46.7506C31.1825 46.7614 31.1346 46.7529 31.0564 46.7023C30.9953 46.6629 30.7197 46.4692 30.6719 46.0631L32.6582 45.8294C32.6034 45.3639 32.284 45.1145 32.1425 45.0229C31.9838 44.9203 31.8187 44.8635 31.7019 44.8296C31.4584 44.7591 31.158 44.7149 30.8396 44.6834C30.1871 44.619 29.2514 44.5894 28.0537 44.5894V46.5894ZM37.4146 28.0156L38.4146 28.0225L38.4147 28.0096L38.4144 27.9966L37.4146 28.0156ZM37.3096 22.4937V21.4937H36.2904L36.3098 22.5127L37.3096 22.4937ZM37.4566 22.5566L37.0094 23.4511L37.2286 23.5607L37.4737 23.5565L37.4566 22.5566ZM61.4971 22.2627L61.9443 21.3683L61.732 21.2621L61.4945 21.2627L61.4971 22.2627ZM61.6231 22.3887H62.6231V22.1526L62.5175 21.9415L61.6231 22.3887ZM61.5811 29.7163L62.5356 30.0146L62.5695 29.9062L62.5782 29.793L61.5811 29.7163ZM49.6133 29.8843L49.6439 28.8847L48.6133 28.8533V29.8843H49.6133ZM49.5504 30.5562L48.5588 30.4268L48.556 30.4481L48.5541 30.4695L49.5504 30.5562ZM49.4874 31.249L50.4788 31.3795L50.4809 31.364L50.4824 31.3485L49.4874 31.249ZM49.3824 32.0469L50.3738 32.1773L49.3824 32.0469ZM49.2354 34.8184L48.2356 34.7971L48.2134 35.8417L49.258 35.8181L49.2354 34.8184ZM55.7442 34.6714L55.7668 35.6711L55.7692 35.6711L55.7442 34.6714ZM60.1954 34.7134L59.9894 35.6919L60.0143 35.6972L60.0394 35.7011L60.1954 34.7134ZM60.5943 35.1333L61.5866 35.2573L61.5943 35.1956V35.1333H60.5943ZM60.5733 35.3013L59.581 35.1772L59.5733 35.239V35.3013H60.5733ZM60.5733 35.8052H59.5733V35.8149L59.5735 35.8246L60.5733 35.8052ZM60.6783 41.2012L61.3854 41.9083L61.6864 41.6073L61.6781 41.1817L60.6783 41.2012ZM60.6573 41.2222H59.6573V43.6364L61.3644 41.9293L60.6573 41.2222ZM60.6573 41.2012H61.6573V40.1506L60.608 40.2024L60.6573 41.2012ZM49.4664 41.5161V40.5161H48.4664V41.5161H49.4664ZM49.4664 46.5972H48.4664V47.629L49.4977 47.5967L49.4664 46.5972ZM60.8672 46.2402V45.2402H60.8516L60.836 45.2407L60.8672 46.2402ZM62.064 46.5132L63.0633 46.5516L63.0792 46.1386L62.7988 45.8349L62.064 46.5132ZM62.043 48.0669H61.043V48.0798L61.0434 48.0926L62.043 48.0669ZM62.19 53.7778H63.19V53.765L63.1897 53.7521L62.19 53.7778ZM61.7281 54.3867L61.7191 55.3867L61.8138 55.3875L61.907 55.3706L61.7281 54.3867ZM54.7574 54.3237L54.7664 53.3237H54.7574V54.3237ZM46.5689 54.4707L46.5449 53.471L46.5445 53.471L46.5689 54.4707ZM43.1255 54.5547L43.1012 53.5549L43.0911 53.5553L43.1255 54.5547ZM37.7086 54.6807L37.1539 55.5127L37.4058 55.6807H37.7086V54.6807ZM37.6456 54.6387V53.6387H34.3428L37.0909 55.4707L37.6456 54.6387ZM37.6666 54.6387V55.6387H40.0808L38.3737 53.9316L37.6666 54.6387ZM37.2676 54.2397H36.2676V54.654L36.5605 54.9469L37.2676 54.2397ZM37.2676 53.5049L36.2676 53.4993V53.5049H37.2676ZM37.3936 31.0601L36.3936 31.0532L36.3936 31.0544L37.3936 31.0601ZM38.4144 27.9966L38.3094 22.4746L36.3098 22.5127L36.4148 28.0346L38.4144 27.9966ZM37.3096 23.4937C37.2508 23.4937 37.2028 23.4884 37.1712 23.4838C37.1383 23.4791 37.1111 23.4735 37.0917 23.469C37.0538 23.4603 37.0252 23.4512 37.0105 23.4463C36.9942 23.4409 36.9822 23.4363 36.9757 23.4338C36.9689 23.4311 36.9645 23.4292 36.963 23.4285C36.9609 23.4277 36.9739 23.4333 37.0094 23.4511L37.9038 21.6622C37.8553 21.638 37.8019 21.6121 37.7508 21.5903C37.7263 21.5798 37.6879 21.5639 37.6429 21.5489C37.6346 21.5461 37.4915 21.4937 37.3096 21.4937V23.4937ZM37.4737 23.5565C48.1106 23.3745 56.1182 23.2767 61.4997 23.2627L61.4945 21.2627C56.098 21.2767 48.0787 21.3748 37.4395 21.5568L37.4737 23.5565ZM61.0499 23.1571C60.9124 23.0884 60.7974 22.9734 60.7287 22.8359L62.5175 21.9415C62.3928 21.6919 62.1939 21.493 61.9443 21.3683L61.0499 23.1571ZM60.6231 22.3887V28.3096H62.6231V22.3887H60.6231ZM60.6231 28.3096C60.6231 28.8705 60.6093 29.3113 60.5841 29.6396L62.5782 29.793C62.6089 29.3935 62.6231 28.8964 62.6231 28.3096H60.6231ZM60.6266 29.418C60.6907 29.2132 60.8184 29.0944 60.8933 29.0424C60.9593 28.9964 60.9956 28.9927 60.9572 29.0031C60.9243 29.012 60.8586 29.0254 60.7496 29.0358C60.6427 29.0461 60.508 29.0522 60.3423 29.0522V31.0522C60.7522 31.0522 61.1476 31.0237 61.4807 30.9334C61.7515 30.86 62.3375 30.6485 62.5356 30.0146L60.6266 29.418ZM60.3423 29.0522H60.1954V31.0522H60.3423V29.0522ZM60.1954 29.0522C56.819 29.0522 53.3018 28.9964 49.6439 28.8847L49.5828 30.8838C53.2595 30.9961 56.797 31.0522 60.1954 31.0522V29.0522ZM48.6133 29.8843C48.6133 29.9372 48.6012 30.1015 48.5588 30.4268L50.542 30.6855C50.5835 30.3669 50.6133 30.0833 50.6133 29.8843H48.6133ZM48.5541 30.4695C48.5261 30.7912 48.5056 31.0165 48.4923 31.1495L50.4824 31.3485C50.4971 31.2016 50.5186 30.965 50.5466 30.6428L48.5541 30.4695ZM48.4959 31.1186L48.3909 31.9164L50.3738 32.1773L50.4788 31.3795L48.4959 31.1186ZM48.3909 31.9164C48.313 32.5087 48.2636 33.4821 48.2356 34.7971L50.2352 34.8396C50.2632 33.5231 50.3118 32.6489 50.3738 32.1773L48.3909 31.9164ZM49.258 35.8181L55.7668 35.6711L55.7216 33.6716L49.2128 33.8186L49.258 35.8181ZM55.7692 35.6711C56.8882 35.6431 57.6893 35.6294 58.1797 35.6294V33.6294C57.6624 33.6294 56.8398 33.6437 55.7192 33.6717L55.7692 35.6711ZM58.1797 35.6294H58.5157V33.6294H58.1797V35.6294ZM58.5157 35.6294C59.391 35.6294 59.8435 35.6612 59.9894 35.6919L60.4014 33.7348C60.0154 33.6536 59.3481 33.6294 58.5157 33.6294V35.6294ZM60.0394 35.7011C60.039 35.7011 59.9044 35.6805 59.7696 35.5386C59.6206 35.3817 59.5943 35.2079 59.5943 35.1333H61.5943C61.5943 34.8207 61.5016 34.4579 61.2196 34.1611C60.9518 33.8792 60.6177 33.7677 60.3513 33.7256L60.0394 35.7011ZM59.602 35.0093L59.581 35.1772L61.5656 35.4253L61.5866 35.2573L59.602 35.0093ZM59.5733 35.3013V35.8052H61.5733V35.3013H59.5733ZM59.5735 35.8246L59.6785 41.2206L61.6781 41.1817L61.5731 35.7857L59.5735 35.8246ZM59.9712 40.4941L59.9502 40.5151L61.3644 41.9293L61.3854 41.9083L59.9712 40.4941ZM61.6573 41.2222V41.2012H59.6573V41.2222H61.6573ZM60.608 40.2024C56.3599 40.412 52.977 40.5161 50.4532 40.5161V42.5161C53.0244 42.5161 56.4442 42.4103 60.7066 42.2L60.608 40.2024ZM50.4532 40.5161H49.4664V42.5161H50.4532V40.5161ZM48.4664 41.5161V46.5972H50.4664V41.5161H48.4664ZM49.4977 47.5967L60.8985 47.2397L60.836 45.2407L49.4351 45.5977L49.4977 47.5967ZM60.8672 47.2402C61.1429 47.2402 61.3179 47.261 61.4165 47.2834C61.4637 47.2942 61.4742 47.3012 61.4609 47.2948C61.4477 47.2884 61.3923 47.2598 61.3292 47.1915L62.7988 45.8349C62.5148 45.5272 62.1414 45.3974 61.8612 45.3335C61.5608 45.265 61.2215 45.2402 60.8672 45.2402V47.2402ZM61.0648 46.4748C61.05 46.858 61.043 47.3909 61.043 48.0669H63.043C63.043 47.3991 63.05 46.8963 63.0633 46.5516L61.0648 46.4748ZM61.0434 48.0926L61.1903 53.8036L63.1897 53.7521L63.0427 48.0412L61.0434 48.0926ZM61.19 53.7778C61.19 53.8148 61.1815 53.7151 61.2778 53.5881C61.3848 53.4472 61.516 53.4089 61.5492 53.4028L61.907 55.3706C62.2481 55.3086 62.6103 55.1408 62.8712 54.7969C63.1215 54.4669 63.19 54.0908 63.19 53.7778H61.19ZM61.7371 53.3868L54.7664 53.3238L54.7483 55.3237L61.7191 55.3867L61.7371 53.3868ZM54.7574 53.3237C53.3717 53.3237 50.6302 53.3731 46.5449 53.471L46.5929 55.4704C50.6821 55.3724 53.3996 55.3237 54.7574 55.3237V53.3237ZM46.5445 53.471L43.1012 53.555L43.1499 55.5544L46.5933 55.4704L46.5445 53.471ZM43.0911 53.5553C40.6576 53.6392 38.8662 53.6807 37.7086 53.6807V55.6807C38.9025 55.6807 40.7224 55.6381 43.16 55.5541L43.0911 53.5553ZM38.2633 53.8486L38.2003 53.8066L37.0909 55.4707L37.1539 55.5127L38.2633 53.8486ZM37.6456 55.6387H37.6666V53.6387H37.6456V55.6387ZM38.3737 53.9316C38.3619 53.9198 38.333 53.8909 38.3215 53.8794C38.2519 53.8097 38.3394 53.8973 38.27 53.8279C38.2137 53.7716 38.3007 53.8586 38.2445 53.8024C38.2442 53.8021 38.2384 53.7963 38.2381 53.796C38.2379 53.7958 38.2376 53.7955 38.2374 53.7952C38.2371 53.795 38.2368 53.7947 38.2366 53.7945C38.2351 53.793 38.2364 53.7943 38.235 53.7929C38.2293 53.7872 38.2374 53.7953 38.2318 53.7897C38.2243 53.7822 38.2266 53.7845 38.2192 53.777C38.2042 53.7621 38.2088 53.7667 38.194 53.7519C38.1866 53.7444 38.1763 53.7342 38.169 53.7269C38.1241 53.682 38.1641 53.722 38.1194 53.6773C38.0609 53.6188 38.1288 53.6867 38.0705 53.6284C38.0618 53.6197 38.0308 53.5887 38.0223 53.5802C38.0081 53.566 38.0245 53.5824 38.0104 53.5683C37.9927 53.5506 38.0161 53.574 37.9984 53.5563C37.9713 53.5292 38.0019 53.5598 37.9747 53.5326L36.5605 54.9469C36.6032 54.9895 36.5652 54.9515 36.6081 54.9944C36.6223 55.0086 36.6179 55.0042 36.6321 55.0185C36.6465 55.0328 36.6419 55.0282 36.6563 55.0426C36.6581 55.0444 36.6576 55.0439 36.6594 55.0457C36.663 55.0493 36.6588 55.0451 36.6624 55.0487C36.6768 55.0631 36.6541 55.0404 36.6685 55.0548C36.6721 55.0584 36.671 55.0573 36.6746 55.0609C36.6748 55.0612 36.6751 55.0614 36.6753 55.0617C36.6756 55.0619 36.6758 55.0622 36.6761 55.0624C36.6779 55.0642 36.6758 55.0621 36.6776 55.064C36.6813 55.0676 36.6771 55.0634 36.6807 55.067C36.6951 55.0814 36.6907 55.0771 36.7052 55.0915C36.7055 55.0918 36.7057 55.092 36.706 55.0923C36.7062 55.0926 36.7065 55.0928 36.7067 55.0931C36.707 55.0933 36.708 55.0943 36.7083 55.0946C36.711 55.0973 36.7071 55.0934 36.7098 55.0961C36.7135 55.0998 36.7077 55.094 36.7114 55.0977C36.715 55.1013 36.7108 55.0971 36.7144 55.1008C36.7147 55.101 36.715 55.1013 36.7152 55.1015C36.7155 55.1018 36.7157 55.1021 36.716 55.1023C36.7162 55.1026 36.7165 55.1028 36.7168 55.1031C36.717 55.1033 36.7173 55.1036 36.7175 55.1039C36.7212 55.1075 36.72 55.1064 36.7237 55.11C36.7246 55.1109 36.7243 55.1107 36.7253 55.1116C36.7255 55.1118 36.7258 55.1121 36.726 55.1123C36.7263 55.1126 36.7265 55.1129 36.7268 55.1131C36.7286 55.115 36.7265 55.1128 36.7283 55.1147C36.7302 55.1165 36.7281 55.1144 36.7299 55.1162C36.7317 55.118 36.7312 55.1175 36.733 55.1193C36.7332 55.1196 36.7335 55.1198 36.7338 55.1201C36.734 55.1203 36.7343 55.1206 36.7345 55.1209C36.7348 55.1211 36.7351 55.1214 36.7353 55.1216C36.7356 55.1219 36.7358 55.1222 36.7361 55.1224C36.7361 55.1224 36.7423 55.1286 36.7423 55.1286C36.7426 55.1289 36.7428 55.1291 36.7431 55.1294C36.7433 55.1297 36.7436 55.1299 36.7439 55.1302C36.7441 55.1304 36.7444 55.1307 36.7446 55.131C36.7449 55.1312 36.7451 55.1315 36.7454 55.1317C36.7457 55.132 36.7459 55.1322 36.7462 55.1325C36.7464 55.1328 36.7467 55.133 36.747 55.1333C36.7472 55.1335 36.7475 55.1338 36.7477 55.1341C36.748 55.1343 36.7483 55.1346 36.7485 55.1348C36.7504 55.1367 36.7498 55.1361 36.7516 55.138C36.7519 55.1382 36.7521 55.1385 36.7524 55.1387C36.7527 55.139 36.7529 55.1392 36.7532 55.1395C36.7534 55.1398 36.7537 55.14 36.754 55.1403C36.7542 55.1405 36.7545 55.1408 36.7547 55.1411C36.8345 55.2208 36.8762 55.2626 36.9595 55.3458L38.3737 53.9316ZM38.2676 54.2397V53.5049H36.2676V54.2397H38.2676ZM38.2676 53.5105L38.3936 31.0657L36.3936 31.0544L36.2677 53.4993L38.2676 53.5105ZM38.3936 31.067L38.4146 28.0225L36.4146 28.0087L36.3936 31.0532L38.3936 31.067ZM93.9537 30.1782H94.9538L94.9537 30.1657L93.9537 30.1782ZM93.8068 30.8711L93.7985 31.8711H93.8068V30.8711ZM86.2062 30.8081L86.2145 29.8081L85.2267 29.8L85.2064 30.7875L86.2062 30.8081ZM86.1852 43.1748L87.1852 43.1673L87.1851 43.1623L86.1852 43.1748ZM86.2692 54.3027L87.2109 54.6391L87.2705 54.4723L87.2691 54.2952L86.2692 54.3027ZM85.8492 54.6177L85.835 55.6176L85.8754 55.6181L85.9158 55.6155L85.8492 54.6177ZM81.4191 54.5547L81.4333 53.5548L81.0108 53.5488L80.712 53.8476L81.4191 54.5547ZM81.3981 54.5757L81.3829 55.5756L81.806 55.582L82.1052 55.2828L81.3981 54.5757ZM80.0123 54.5547L80.0275 53.5548L80.0199 53.5547H80.0123V54.5547ZM73.8395 54.5757L73.1778 55.3255L73.473 55.586L73.8665 55.5753L73.8395 54.5757ZM73.4825 54.2607L72.7754 54.9678L72.7975 54.9899L72.8209 55.0106L73.4825 54.2607ZM73.2096 53.9248H72.2096V54.2756L72.4287 54.5495L73.2096 53.9248ZM73.3566 45.7153L74.3563 45.7384L74.3563 45.736L73.3566 45.7153ZM73.5875 34.5454L74.5873 34.5661L74.5883 34.5158L74.5843 34.4657L73.5875 34.5454ZM73.5455 34.0205L72.548 34.091L72.5487 34.1003L73.5455 34.0205ZM73.2516 31.564L72.298 31.8651L72.3078 31.8961L72.3196 31.9264L73.2516 31.564ZM72.7267 31.144L72.622 32.1385L72.648 32.1413L72.6741 32.1427L72.7267 31.144ZM72.1388 31.1021V30.1021H72.1138L72.0889 30.1033L72.1388 31.1021ZM71.299 31.144L71.2828 32.1439L71.3159 32.1444L71.3489 32.1428L71.299 31.144ZM66.0919 31.0601L65.1975 31.5073L65.4689 32.0501L66.0758 32.0599L66.0919 31.0601ZM65.819 28.6035L64.8192 28.5808L64.819 28.5922V28.6035H65.819ZM65.861 26.7559L66.8607 26.7786L66.861 26.7672V26.7559H65.861ZM65.861 26.189H66.861L66.8609 26.1827L65.861 26.189ZM65.798 22.5986V21.5986H64.5998L64.8141 22.7775L65.798 22.5986ZM65.9659 22.6406L65.6497 23.5893L65.8079 23.642L65.9746 23.6406L65.9659 22.6406ZM92.694 22.4097V21.4096L92.6853 21.4097L92.694 22.4097ZM93.7228 22.5356L93.2083 23.3931L93.2412 23.4129L93.2756 23.4301L93.7228 22.5356ZM93.9327 28.4985H92.9327L92.9328 28.511L93.9327 28.4985ZM92.9537 30.1782C92.9537 30.2773 92.9511 30.3539 92.947 30.4108C92.9428 30.4707 92.9381 30.4934 92.9388 30.4904C92.9393 30.4879 92.9432 30.4695 92.9535 30.4403C92.9631 30.4132 92.9848 30.3578 93.0274 30.2909C93.0693 30.225 93.1486 30.1211 93.2826 30.0308C93.4274 29.9333 93.6088 29.8711 93.8068 29.8711V31.8711C94.2995 31.8711 94.5928 31.5562 94.7147 31.3647C94.8276 31.1873 94.8735 31.0079 94.8952 30.9054C94.9421 30.6844 94.9537 30.4261 94.9537 30.1782H92.9537ZM93.8068 30.8711C93.815 29.8711 93.815 29.8711 93.815 29.8711C93.815 29.8711 93.815 29.8711 93.8149 29.8711C93.8149 29.8711 93.8148 29.8711 93.8148 29.8711C93.8147 29.8711 93.8147 29.8711 93.8146 29.8711C93.8145 29.8711 93.8144 29.8711 93.8143 29.8711C93.8142 29.8711 93.8141 29.8711 93.814 29.8711C93.7961 29.871 93.8311 29.8713 93.8132 29.8711C93.813 29.8711 93.8129 29.8711 93.8127 29.8711C93.8125 29.8711 93.8123 29.8711 93.8121 29.8711C93.812 29.8711 93.8118 29.8711 93.8115 29.8711C93.8113 29.8711 93.8111 29.8711 93.8109 29.8711C93.7914 29.8709 93.8274 29.8712 93.8076 29.8711C93.8073 29.8711 93.807 29.8711 93.8067 29.8711C93.8063 29.8711 93.806 29.8711 93.8056 29.871C93.7887 29.8709 93.8205 29.8712 93.8035 29.871C93.8031 29.871 93.8027 29.871 93.8023 29.871C93.8019 29.871 93.8014 29.871 93.801 29.871C93.8006 29.871 93.8002 29.871 93.7997 29.871C93.7993 29.871 93.7988 29.871 93.7983 29.871C93.7699 29.8708 93.815 29.8711 93.7854 29.8709C93.7847 29.8709 93.7841 29.8709 93.7835 29.8709C93.7828 29.8709 93.7822 29.8709 93.7815 29.8708C93.7809 29.8708 93.7802 29.8708 93.7795 29.8708C93.7789 29.8708 93.7782 29.8708 93.7775 29.8708C93.7592 29.8707 93.7872 29.8709 93.7687 29.8707C93.7679 29.8707 93.7671 29.8707 93.7663 29.8707C93.7655 29.8707 93.7647 29.8707 93.7639 29.8707C93.747 29.8706 93.7759 29.8708 93.7589 29.8707C93.7581 29.8707 93.7572 29.8706 93.7563 29.8706C93.7555 29.8706 93.7546 29.8706 93.7537 29.8706C93.7528 29.8706 93.7519 29.8706 93.751 29.8706C93.7501 29.8706 93.7492 29.8706 93.7482 29.8706C93.7148 29.8703 93.7588 29.8707 93.7241 29.8704C93.723 29.8704 93.7219 29.8704 93.7208 29.8703C93.7197 29.8703 93.7186 29.8703 93.7175 29.8703C93.7164 29.8703 93.7153 29.8703 93.7141 29.8703C93.713 29.8703 93.7118 29.8703 93.7107 29.8703C93.6813 29.87 93.726 29.8704 93.6963 29.8701C93.6951 29.8701 93.6938 29.8701 93.6925 29.8701C93.6913 29.8701 93.69 29.8701 93.6888 29.8701C93.6678 29.8699 93.702 29.8702 93.681 29.87C93.6797 29.87 93.6783 29.87 93.677 29.87C93.6757 29.87 93.6743 29.87 93.673 29.87C93.6716 29.8699 93.6703 29.8699 93.6689 29.8699C93.6675 29.8699 93.6661 29.8699 93.6647 29.8699C93.6165 29.8695 93.679 29.87 93.6295 29.8696C93.6279 29.8696 93.6264 29.8696 93.6248 29.8696C93.6233 29.8695 93.6217 29.8695 93.6201 29.8695C93.6185 29.8695 93.6169 29.8695 93.6153 29.8695C93.6137 29.8695 93.6121 29.8694 93.6105 29.8694C93.5836 29.8692 93.6177 29.8695 93.5905 29.8693C93.5888 29.8693 93.5871 29.8692 93.5854 29.8692C93.5837 29.8692 93.5819 29.8692 93.5802 29.8692C93.5589 29.869 93.591 29.8693 93.5696 29.8691C93.5679 29.8691 93.5661 29.8691 93.5643 29.869C93.5625 29.869 93.5607 29.869 93.5589 29.869C93.557 29.869 93.5552 29.869 93.5534 29.869C93.5515 29.8689 93.5497 29.8689 93.5478 29.8689C93.4847 29.8684 93.5658 29.8691 93.5014 29.8685C93.4994 29.8685 93.4974 29.8685 93.4954 29.8685C93.4934 29.8685 93.4913 29.8684 93.4893 29.8684C93.4872 29.8684 93.4852 29.8684 93.4831 29.8684C93.481 29.8684 93.479 29.8683 93.4769 29.8683C93.4425 29.868 93.486 29.8684 93.4513 29.8681C93.4492 29.8681 93.447 29.8681 93.4448 29.8681C93.4426 29.868 93.4404 29.868 93.4382 29.868C93.4114 29.8678 93.4518 29.8681 93.4249 29.8679C93.4227 29.8679 93.4204 29.8679 93.4181 29.8678C93.4159 29.8678 93.4136 29.8678 93.4113 29.8678C93.409 29.8678 93.4068 29.8677 93.4045 29.8677C93.4022 29.8677 93.3998 29.8677 93.3975 29.8677C93.3595 29.8674 93.4076 29.8678 93.3692 29.8674C93.3668 29.8674 93.3644 29.8674 93.362 29.8674C93.3596 29.8674 93.3572 29.8673 93.3547 29.8673C93.3251 29.8671 93.3697 29.8674 93.34 29.8672C93.3375 29.8672 93.3351 29.8671 93.3326 29.8671C93.3301 29.8671 93.3276 29.8671 93.3251 29.8671C93.3225 29.867 93.32 29.867 93.3175 29.867C93.3149 29.867 93.3124 29.867 93.3099 29.8669C93.2681 29.8666 93.3208 29.867 93.2788 29.8667C93.2761 29.8667 93.2735 29.8666 93.2709 29.8666C93.2682 29.8666 93.2656 29.8666 93.2629 29.8666C93.2305 29.8663 93.2792 29.8667 93.2468 29.8664C93.2441 29.8664 93.2413 29.8664 93.2386 29.8664C93.2359 29.8663 93.2332 29.8663 93.2304 29.8663C93.2277 29.8663 93.2249 29.8662 93.2222 29.8662C93.2194 29.8662 93.2166 29.8662 93.2138 29.8661C93.1684 29.8658 93.2257 29.8662 93.18 29.8659C93.1771 29.8658 93.1742 29.8658 93.1713 29.8658C93.1685 29.8658 93.1656 29.8657 93.1627 29.8657C93.1275 29.8654 93.1804 29.8659 93.1452 29.8656C93.1422 29.8656 93.1393 29.8655 93.1363 29.8655C93.1334 29.8655 93.1304 29.8655 93.1274 29.8654C93.1245 29.8654 93.1215 29.8654 93.1185 29.8654C93.1155 29.8653 93.1125 29.8653 93.1095 29.8653C93.0603 29.8649 93.1223 29.8654 93.0728 29.865C93.0697 29.865 93.0666 29.8649 93.0635 29.8649C93.0604 29.8649 93.0573 29.8648 93.0541 29.8648C93.0288 29.8646 93.0606 29.8649 93.0352 29.8647C93.0321 29.8646 93.0289 29.8646 93.0257 29.8646C93.0225 29.8646 93.0193 29.8645 93.0161 29.8645C93.0129 29.8645 93.0097 29.8645 93.0064 29.8644C93.0032 29.8644 93 29.8644 92.9967 29.8643C92.9438 29.8639 93.0105 29.8645 92.9573 29.864C92.954 29.864 92.9506 29.864 92.9473 29.8639C92.9439 29.8639 92.9406 29.8639 92.9372 29.8639C92.9101 29.8636 92.9441 29.8639 92.9169 29.8637C92.9135 29.8637 92.9101 29.8636 92.9067 29.8636C92.9033 29.8636 92.8998 29.8635 92.8964 29.8635C92.893 29.8635 92.8895 29.8635 92.8861 29.8634C92.8826 29.8634 92.8791 29.8634 92.8756 29.8633C92.819 29.8629 92.8903 29.8635 92.8334 29.863C92.8299 29.863 92.8263 29.8629 92.8227 29.8629C92.8192 29.8629 92.8156 29.8628 92.812 29.8628C92.783 29.8626 92.8194 29.8629 92.7903 29.8626C92.7867 29.8626 92.783 29.8626 92.7794 29.8625C92.7757 29.8625 92.772 29.8625 92.7684 29.8625C92.7647 29.8624 92.761 29.8624 92.7573 29.8624C92.7536 29.8623 92.7499 29.8623 92.7462 29.8623C92.6859 29.8618 92.7618 29.8624 92.7012 29.8619C92.6974 29.8619 92.6936 29.8618 92.6898 29.8618C92.686 29.8618 92.6822 29.8617 92.6784 29.8617C92.6475 29.8615 92.6862 29.8618 92.6553 29.8615C92.6514 29.8615 92.6475 29.8615 92.6437 29.8614C92.6398 29.8614 92.6359 29.8614 92.632 29.8613C92.6281 29.8613 92.6242 29.8613 92.6202 29.8612C92.6163 29.8612 92.6124 29.8612 92.6084 29.8611C92.5767 29.8609 92.6165 29.8612 92.5847 29.8609C92.5807 29.8609 92.5767 29.8609 92.5727 29.8608C92.5687 29.8608 92.5647 29.8608 92.5607 29.8607C92.5566 29.8607 92.5526 29.8607 92.5486 29.8606C92.5445 29.8606 92.5405 29.8606 92.5364 29.8605C92.5037 29.8603 92.5447 29.8606 92.5119 29.8603C92.5078 29.8603 92.5037 29.8603 92.4996 29.8602C92.4955 29.8602 92.4914 29.8602 92.4872 29.8601C92.4831 29.8601 92.479 29.8601 92.4748 29.86C92.4706 29.86 92.4665 29.86 92.4623 29.8599C92.4287 29.8596 92.4708 29.86 92.4371 29.8597C92.4329 29.8597 92.4287 29.8596 92.4245 29.8596C92.4202 29.8596 92.416 29.8595 92.4117 29.8595C92.4075 29.8595 92.4032 29.8594 92.399 29.8594C92.3947 29.8594 92.3904 29.8593 92.3861 29.8593C92.3515 29.859 92.3949 29.8594 92.3602 29.8591C92.3559 29.859 92.3516 29.859 92.3472 29.859C92.3429 29.8589 92.3385 29.8589 92.3342 29.8589C92.3298 29.8588 92.3254 29.8588 92.321 29.8587C92.3166 29.8587 92.3122 29.8587 92.3078 29.8586C92.2723 29.8583 92.3168 29.8587 92.2813 29.8584C92.2768 29.8584 92.2724 29.8583 92.2679 29.8583C92.2634 29.8583 92.259 29.8582 92.2545 29.8582C92.25 29.8582 92.2455 29.8581 92.241 29.8581C92.2365 29.858 92.232 29.858 92.2275 29.858C92.191 29.8577 92.2367 29.858 92.2002 29.8577C92.1956 29.8577 92.1911 29.8577 92.1865 29.8576C92.1819 29.8576 92.1773 29.8576 92.1727 29.8575C92.1681 29.8575 92.1635 29.8574 92.1589 29.8574C92.1543 29.8574 92.1496 29.8573 92.145 29.8573C92.1077 29.857 92.1545 29.8574 92.117 29.8571C92.1124 29.857 92.1077 29.857 92.103 29.8569C92.0983 29.8569 92.0936 29.8569 92.0889 29.8568C92.0841 29.8568 92.0794 29.8567 92.0747 29.8567C92.0699 29.8567 92.0652 29.8566 92.0604 29.8566C92.0222 29.8563 92.0702 29.8567 92.0318 29.8563C92.027 29.8563 92.0222 29.8563 92.0174 29.8562C92.0126 29.8562 92.0078 29.8561 92.0029 29.8561C91.9981 29.8561 91.9932 29.856 91.9884 29.856C91.9836 29.8559 91.9787 29.8559 91.9738 29.8559C91.9346 29.8555 91.9837 29.856 91.9445 29.8556C91.9396 29.8556 91.9346 29.8555 91.9297 29.8555C91.9248 29.8555 91.9198 29.8554 91.9149 29.8554C91.91 29.8553 91.905 29.8553 91.9 29.8553C91.8951 29.8552 91.8901 29.8552 91.8851 29.8551C91.845 29.8548 91.8953 29.8552 91.8551 29.8549C91.85 29.8548 91.845 29.8548 91.84 29.8548C91.8349 29.8547 91.8298 29.8547 91.8248 29.8546C91.8197 29.8546 91.8147 29.8545 91.8096 29.8545C91.8045 29.8545 91.7994 29.8544 91.7943 29.8544C91.7532 29.854 91.8047 29.8545 91.7635 29.8541C91.7584 29.8541 91.7533 29.854 91.7481 29.854C91.7429 29.854 91.7378 29.8539 91.7326 29.8539C91.7274 29.8538 91.7222 29.8538 91.717 29.8537C91.7118 29.8537 91.7066 29.8537 91.7014 29.8536C91.6594 29.8533 91.712 29.8537 91.67 29.8534C91.6647 29.8533 91.6594 29.8533 91.6542 29.8532C91.6489 29.8532 91.6436 29.8531 91.6383 29.8531C91.633 29.853 91.6277 29.853 91.6224 29.853C91.6171 29.8529 91.6117 29.8529 91.6064 29.8528C91.5635 29.8525 91.6173 29.8529 91.5743 29.8526C91.5689 29.8525 91.5635 29.8525 91.5581 29.8524C91.5527 29.8524 91.5473 29.8523 91.5419 29.8523C91.5365 29.8522 91.5311 29.8522 91.5257 29.8522C91.5202 29.8521 91.5148 29.8521 91.5093 29.852C91.4655 29.8517 91.5204 29.8521 91.4765 29.8517C91.471 29.8517 91.4655 29.8517 91.46 29.8516C91.4545 29.8516 91.449 29.8515 91.4435 29.8515C91.4379 29.8514 91.4324 29.8514 91.4268 29.8513C91.4213 29.8513 91.4157 29.8512 91.4102 29.8512C91.3654 29.8508 91.4215 29.8513 91.3767 29.8509C91.371 29.8509 91.3654 29.8508 91.3598 29.8508C91.3542 29.8507 91.3485 29.8507 91.3429 29.8506C91.3373 29.8506 91.3316 29.8505 91.3259 29.8505C91.3203 29.8505 91.3146 29.8504 91.3089 29.8504C91.2632 29.85 91.3205 29.8505 91.2747 29.8501C91.269 29.85 91.2633 29.85 91.2575 29.8499C91.2518 29.8499 91.246 29.8498 91.2403 29.8498C91.2345 29.8497 91.2287 29.8497 91.223 29.8496C91.2172 29.8496 91.2114 29.8496 91.2056 29.8495C91.159 29.8491 91.2174 29.8496 91.1707 29.8492C91.1648 29.8492 91.159 29.8491 91.1531 29.8491C91.1473 29.849 91.1414 29.849 91.1355 29.8489C91.1297 29.8489 91.1238 29.8488 91.1179 29.8488C91.112 29.8487 91.1061 29.8487 91.1002 29.8486C91.0526 29.8482 91.1122 29.8487 91.0646 29.8483C91.0586 29.8483 91.0527 29.8482 91.0467 29.8482C91.0407 29.8481 91.0347 29.8481 91.0287 29.848C91.0227 29.848 91.0167 29.8479 91.0107 29.8479C91.0047 29.8478 90.9987 29.8478 90.9927 29.8477C90.9442 29.8473 91.0049 29.8478 90.9564 29.8474C90.9503 29.8474 90.9442 29.8473 90.9381 29.8473C90.932 29.8472 90.9259 29.8472 90.9198 29.8471C90.9137 29.8471 90.9076 29.847 90.9015 29.847C90.8953 29.8469 90.8892 29.8469 90.8831 29.8468C90.8337 29.8464 90.8955 29.8469 90.8461 29.8465C90.8399 29.8465 90.8337 29.8464 90.8275 29.8464C90.8213 29.8463 90.8151 29.8463 90.8088 29.8462C90.8026 29.8462 90.7964 29.8461 90.7901 29.8461C90.7839 29.846 90.7776 29.846 90.7714 29.8459C90.721 29.8455 90.7841 29.846 90.7337 29.8456C90.7274 29.8455 90.7211 29.8455 90.7148 29.8454C90.7084 29.8454 90.7021 29.8453 90.6958 29.8453C90.6894 29.8452 90.6831 29.8452 90.6767 29.8451C90.6704 29.8451 90.664 29.845 90.6576 29.845C90.6063 29.8445 90.6706 29.8451 90.6192 29.8446C90.6128 29.8446 90.6064 29.8445 90.5999 29.8445C90.5935 29.8444 90.5871 29.8444 90.5806 29.8443C90.5741 29.8443 90.5677 29.8442 90.5612 29.8442C90.5547 29.8441 90.5482 29.8441 90.5417 29.844C90.4895 29.8436 90.5549 29.8441 90.5027 29.8437C90.4961 29.8436 90.4896 29.8436 90.483 29.8435C90.4765 29.8435 90.4699 29.8434 90.4633 29.8434C90.4568 29.8433 90.4502 29.8432 90.4436 29.8432C90.437 29.8431 90.4304 29.8431 90.4238 29.843C90.3707 29.8426 90.4372 29.8431 90.384 29.8427C90.3774 29.8426 90.3707 29.8426 90.364 29.8425C90.3574 29.8425 90.3507 29.8424 90.344 29.8424C90.3373 29.8423 90.3306 29.8423 90.3239 29.8422C90.3172 29.8421 90.3105 29.8421 90.3038 29.842C90.2497 29.8416 90.3174 29.8421 90.2633 29.8417C90.2565 29.8416 90.2497 29.8416 90.243 29.8415C90.2362 29.8415 90.2294 29.8414 90.2226 29.8414C90.2158 29.8413 90.209 29.8412 90.2021 29.8412C90.1953 29.8411 90.1885 29.8411 90.1816 29.841C90.1267 29.8406 90.1955 29.8411 90.1405 29.8407C90.1336 29.8406 90.1267 29.8406 90.1198 29.8405C90.1129 29.8404 90.106 29.8404 90.0991 29.8403C90.0921 29.8403 90.0852 29.8402 90.0783 29.8402C90.0713 29.8401 90.0644 29.84 90.0574 29.84C90.0015 29.8395 90.0715 29.8401 90.0156 29.8396C90.0086 29.8396 90.0016 29.8395 89.9945 29.8395C89.9875 29.8394 89.9805 29.8393 89.9735 29.8393C89.9664 29.8392 89.9594 29.8392 89.9523 29.8391C89.9453 29.8391 89.9382 29.839 89.9311 29.8389C89.8743 29.8385 89.9455 29.8391 89.8886 29.8386C89.8815 29.8385 89.8743 29.8385 89.8672 29.8384C89.8601 29.8384 89.8529 29.8383 89.8458 29.8382C89.8386 29.8382 89.8315 29.8381 89.8243 29.8381C89.8171 29.838 89.8099 29.8379 89.8027 29.8379C89.745 29.8374 89.8173 29.838 89.7595 29.8375C89.7523 29.8375 89.745 29.8374 89.7378 29.8373C89.7305 29.8373 89.7233 29.8372 89.716 29.8372C89.7087 29.8371 89.7015 29.837 89.6942 29.837C89.6869 29.8369 89.6796 29.8369 89.6723 29.8368C89.6136 29.8363 89.6871 29.8369 89.6283 29.8364C89.621 29.8364 89.6136 29.8363 89.6063 29.8362C89.5989 29.8362 89.5915 29.8361 89.5841 29.8361C89.5768 29.836 89.5694 29.8359 89.562 29.8359C89.5546 29.8358 89.5471 29.8358 89.5397 29.8357C89.4801 29.8352 89.5548 29.8358 89.4951 29.8353C89.4876 29.8353 89.4801 29.8352 89.4727 29.8351C89.4652 29.8351 89.4577 29.835 89.4502 29.835C89.4427 29.8349 89.4352 29.8348 89.4277 29.8348C89.4201 29.8347 89.4126 29.8346 89.4051 29.8346C89.3445 29.8341 89.4203 29.8347 89.3597 29.8342C89.3521 29.8341 89.3446 29.8341 89.337 29.834C89.3294 29.834 89.3218 29.8339 89.3141 29.8338C89.3065 29.8338 89.2989 29.8337 89.2913 29.8336C89.2836 29.8336 89.276 29.8335 89.2683 29.8334C89.2068 29.8329 89.2839 29.8336 89.2223 29.8331C89.2146 29.833 89.2069 29.8329 89.1992 29.8329C89.1915 29.8328 89.1837 29.8327 89.176 29.8327C89.1683 29.8326 89.1605 29.8326 89.1528 29.8325C89.145 29.8324 89.1373 29.8324 89.1295 29.8323C89.1217 29.8322 89.114 29.8322 89.1062 29.8321C89.0984 29.832 89.0906 29.832 89.0828 29.8319C89.075 29.8318 89.0671 29.8318 89.0593 29.8317C89.0515 29.8317 89.0436 29.8316 89.0358 29.8315C89.028 29.8315 89.0201 29.8314 89.0122 29.8313C89.0044 29.8313 88.9965 29.8312 88.9886 29.8311C88.9807 29.8311 88.9728 29.831 88.9649 29.8309C88.957 29.8309 88.9491 29.8308 88.9412 29.8307C88.9332 29.8307 88.9253 29.8306 88.9174 29.8305C88.9094 29.8305 88.9015 29.8304 88.8935 29.8303C88.8855 29.8303 88.8776 29.8302 88.8696 29.8301C88.8616 29.8301 88.8536 29.83 88.8456 29.8299C88.8376 29.8299 88.8296 29.8298 88.8216 29.8297C88.8135 29.8297 88.8055 29.8296 88.7975 29.8295C88.7894 29.8295 88.7814 29.8294 88.7733 29.8293C88.7653 29.8293 88.7572 29.8292 88.7491 29.8291C88.741 29.8291 88.7329 29.829 88.7248 29.8289C88.7167 29.8289 88.7086 29.8288 88.7005 29.8287C88.6924 29.8287 88.6843 29.8286 88.6761 29.8285C88.668 29.8285 88.6598 29.8284 88.6517 29.8283C88.6435 29.8283 88.6354 29.8282 88.6272 29.8281C88.619 29.8281 88.6108 29.828 88.6026 29.8279C88.5944 29.8279 88.5862 29.8278 88.578 29.8277C88.5698 29.8277 88.5616 29.8276 88.5533 29.8275C88.5451 29.8275 88.5369 29.8274 88.5286 29.8273C88.5204 29.8272 88.5121 29.8272 88.5038 29.8271C88.4955 29.827 88.4873 29.827 88.479 29.8269C88.4707 29.8268 88.4624 29.8268 88.4541 29.8267C88.4458 29.8266 88.4374 29.8266 88.4291 29.8265C88.4208 29.8264 88.4124 29.8264 88.4041 29.8263C88.3957 29.8262 88.3874 29.8261 88.379 29.8261C88.3706 29.826 88.3623 29.8259 88.3539 29.8259C88.3455 29.8258 88.3371 29.8257 88.3287 29.8257C88.3203 29.8256 88.3118 29.8255 88.3034 29.8255C88.295 29.8254 88.2866 29.8253 88.2781 29.8252C88.2697 29.8252 88.2612 29.8251 88.2527 29.825C88.2443 29.825 88.2358 29.8249 88.2273 29.8248C88.2188 29.8248 88.2103 29.8247 88.2018 29.8246C88.1933 29.8245 88.1848 29.8245 88.1763 29.8244C88.1678 29.8243 88.1592 29.8243 88.1507 29.8242C88.1421 29.8241 88.1336 29.824 88.125 29.824C88.1165 29.8239 88.1079 29.8238 88.0993 29.8238C88.0907 29.8237 88.0821 29.8236 88.0735 29.8235C88.0649 29.8235 88.0563 29.8234 88.0477 29.8233C88.0391 29.8233 88.0304 29.8232 88.0218 29.8231C88.0132 29.823 88.0045 29.823 87.9958 29.8229C87.9872 29.8228 87.9785 29.8228 87.9698 29.8227C87.9612 29.8226 87.9525 29.8225 87.9438 29.8225C87.9351 29.8224 87.9264 29.8223 87.9176 29.8223C87.9089 29.8222 87.9002 29.8221 87.8915 29.822C87.8827 29.822 87.874 29.8219 87.8652 29.8218C87.8565 29.8217 87.8477 29.8217 87.8389 29.8216C87.8302 29.8215 87.8214 29.8215 87.8126 29.8214C87.8038 29.8213 87.795 29.8212 87.7862 29.8212C87.7774 29.8211 87.7685 29.821 87.7597 29.8209C87.7509 29.8209 87.742 29.8208 87.7332 29.8207C87.7243 29.8207 87.7154 29.8206 87.7066 29.8205C87.6977 29.8204 87.6888 29.8204 87.6799 29.8203C87.671 29.8202 87.6621 29.8201 87.6532 29.8201C87.6443 29.82 87.6354 29.8199 87.6265 29.8198C87.6175 29.8198 87.6086 29.8197 87.5996 29.8196C87.5907 29.8195 87.5817 29.8195 87.5728 29.8194C87.5638 29.8193 87.5548 29.8192 87.5458 29.8192C87.5368 29.8191 87.5278 29.819 87.5188 29.8189C87.5098 29.8189 87.5008 29.8188 87.4918 29.8187C87.4828 29.8187 87.4737 29.8186 87.4647 29.8185C87.4556 29.8184 87.4466 29.8183 87.4375 29.8183C87.4284 29.8182 87.4194 29.8181 87.4103 29.8181C87.4012 29.818 87.3921 29.8179 87.383 29.8178C87.3739 29.8177 87.3648 29.8177 87.3557 29.8176C87.3465 29.8175 87.3374 29.8174 87.3283 29.8174C87.3191 29.8173 87.31 29.8172 87.3008 29.8171C87.2916 29.8171 87.2825 29.817 87.2733 29.8169C87.2641 29.8168 87.2549 29.8168 87.2457 29.8167C87.2365 29.8166 87.2273 29.8165 87.2181 29.8165C87.2089 29.8164 87.1996 29.8163 87.1904 29.8162C87.1812 29.8162 87.1719 29.8161 87.1627 29.816C87.1534 29.8159 87.1441 29.8158 87.1348 29.8158C87.1256 29.8157 87.1163 29.8156 87.107 29.8155C87.0977 29.8155 87.0884 29.8154 87.0791 29.8153C87.0697 29.8152 87.0604 29.8152 87.0511 29.8151C87.0417 29.815 87.0324 29.8149 87.023 29.8148C87.0137 29.8148 87.0043 29.8147 86.9949 29.8146C86.9856 29.8145 86.9762 29.8145 86.9668 29.8144C86.9574 29.8143 86.948 29.8142 86.9386 29.8141C86.9292 29.8141 86.9197 29.814 86.9103 29.8139C86.9009 29.8138 86.8914 29.8137 86.882 29.8137C86.8725 29.8136 86.8631 29.8135 86.8536 29.8134C86.8441 29.8134 86.8346 29.8133 86.8252 29.8132C86.8157 29.8131 86.8062 29.813 86.7967 29.813C86.7871 29.8129 86.7776 29.8128 86.7681 29.8127C86.7586 29.8126 86.749 29.8126 86.7395 29.8125C86.7299 29.8124 86.7204 29.8123 86.7108 29.8123C86.7012 29.8122 86.6917 29.8121 86.6821 29.812C86.6725 29.8119 86.6629 29.8119 86.6533 29.8118C86.6437 29.8117 86.6341 29.8116 86.6244 29.8115C86.6148 29.8115 86.6052 29.8114 86.5955 29.8113C86.5859 29.8112 86.5762 29.8111 86.5666 29.8111C86.5569 29.811 86.5472 29.8109 86.5375 29.8108C86.5279 29.8107 86.5182 29.8107 86.5085 29.8106C86.4988 29.8105 86.489 29.8104 86.4793 29.8103C86.4696 29.8103 86.4599 29.8102 86.4501 29.8101C86.4404 29.81 86.4306 29.8099 86.4209 29.8099C86.4111 29.8098 86.4013 29.8097 86.3916 29.8096C86.3818 29.8095 86.372 29.8094 86.3622 29.8094C86.3524 29.8093 86.3426 29.8092 86.3328 29.8091C86.3229 29.809 86.3131 29.809 86.3033 29.8089C86.2934 29.8088 86.2836 29.8087 86.2737 29.8086C86.2639 29.8085 86.254 29.8085 86.2441 29.8084C86.2342 29.8083 86.2244 29.8082 86.2145 29.8081L86.1979 31.8081C86.2078 31.8082 86.2177 31.8082 86.2275 31.8083C86.2374 31.8084 86.2473 31.8085 86.2571 31.8086C86.2965 31.8089 86.2769 31.8087 86.3162 31.8091C86.3554 31.8094 86.3358 31.8092 86.375 31.8095C86.3848 31.8096 86.3945 31.8097 86.4043 31.8098C86.4141 31.8099 86.4238 31.8099 86.4335 31.81C86.5112 31.8107 86.4727 31.8103 86.55 31.811C86.5597 31.8111 86.5693 31.8111 86.579 31.8112C86.5886 31.8113 86.5982 31.8114 86.6079 31.8115C86.6463 31.8118 86.6272 31.8116 86.6655 31.8119C86.7038 31.8123 86.6847 31.8121 86.7229 31.8124C86.7325 31.8125 86.742 31.8126 86.7515 31.8127C86.7611 31.8127 86.7706 31.8128 86.7801 31.8129C86.8558 31.8135 86.8183 31.8132 86.8937 31.8138C86.9032 31.8139 86.9126 31.814 86.922 31.8141C86.9314 31.8141 86.9408 31.8142 86.9502 31.8143C86.9877 31.8146 86.9691 31.8145 87.0065 31.8148C87.0438 31.8151 87.0252 31.8149 87.0625 31.8152C87.0718 31.8153 87.0811 31.8154 87.0904 31.8155C87.0997 31.8155 87.109 31.8156 87.1183 31.8157C87.1921 31.8163 87.1556 31.816 87.2291 31.8166C87.2383 31.8167 87.2475 31.8168 87.2567 31.8168C87.2659 31.8169 87.2751 31.817 87.2842 31.8171C87.3208 31.8174 87.3026 31.8172 87.3391 31.8175C87.3755 31.8178 87.3574 31.8177 87.3937 31.818C87.4028 31.8181 87.4119 31.8181 87.4209 31.8182C87.43 31.8183 87.4391 31.8184 87.4481 31.8184C87.5201 31.819 87.4845 31.8187 87.5562 31.8193C87.5652 31.8194 87.5741 31.8195 87.5831 31.8196C87.592 31.8196 87.601 31.8197 87.6099 31.8198C87.6455 31.8201 87.6278 31.8199 87.6634 31.8202C87.6989 31.8205 87.6812 31.8204 87.7166 31.8207C87.7254 31.8207 87.7343 31.8208 87.7431 31.8209C87.752 31.8209 87.7608 31.821 87.7696 31.8211C87.8397 31.8217 87.8051 31.8214 87.8749 31.822C87.8836 31.822 87.8924 31.8221 87.9011 31.8222C87.9098 31.8223 87.9185 31.8223 87.9272 31.8224C87.9619 31.8227 87.9446 31.8225 87.9793 31.8228C88.0139 31.8231 87.9966 31.823 88.0311 31.8233C88.0397 31.8233 88.0483 31.8234 88.0569 31.8235C88.0656 31.8235 88.0741 31.8236 88.0827 31.8237C88.1511 31.8243 88.1171 31.824 88.1852 31.8245C88.1937 31.8246 88.2022 31.8247 88.2107 31.8248C88.2192 31.8248 88.2277 31.8249 88.2362 31.825C88.2699 31.8252 88.2531 31.8251 88.2868 31.8254C88.3205 31.8257 88.3037 31.8255 88.3373 31.8258C88.3457 31.8259 88.3541 31.8259 88.3624 31.826C88.3708 31.8261 88.3792 31.8261 88.3875 31.8262C88.4541 31.8268 88.421 31.8265 88.4872 31.827C88.4955 31.8271 88.5038 31.8272 88.512 31.8272C88.5203 31.8273 88.5285 31.8274 88.5368 31.8275C88.5696 31.8277 88.5533 31.8276 88.5861 31.8279C88.6188 31.8281 88.6024 31.828 88.6351 31.8283C88.6433 31.8283 88.6514 31.8284 88.6596 31.8285C88.6677 31.8285 88.6758 31.8286 88.6839 31.8287C88.7486 31.8292 88.7165 31.8289 88.7809 31.8295C88.7889 31.8295 88.797 31.8296 88.805 31.8297C88.813 31.8297 88.821 31.8298 88.829 31.8299C88.861 31.8301 88.8451 31.83 88.8769 31.8303C88.9088 31.8305 88.8928 31.8304 88.9246 31.8307C88.9325 31.8307 88.9404 31.8308 88.9483 31.8309C88.9562 31.8309 88.9641 31.831 88.972 31.8311C89.0967 31.8321 89.036 31.8316 89.1594 31.8326C89.1903 31.8329 89.1749 31.8327 89.2057 31.833C89.2134 31.8331 89.2211 31.8331 89.2288 31.8332C89.2364 31.8333 89.2441 31.8333 89.2518 31.8334C89.3127 31.8339 89.2825 31.8336 89.3431 31.8341C89.4035 31.8346 89.3736 31.8344 89.4336 31.8349C89.4636 31.8351 89.4486 31.835 89.4785 31.8353C89.486 31.8353 89.4934 31.8354 89.5008 31.8354C89.5083 31.8355 89.5157 31.8356 89.5231 31.8356C89.6404 31.8366 89.5834 31.8361 89.6994 31.8371C89.7285 31.8373 89.714 31.8372 89.7429 31.8375C89.7501 31.8375 89.7574 31.8376 89.7646 31.8376C89.7718 31.8377 89.779 31.8377 89.7862 31.8378C89.8434 31.8383 89.8151 31.838 89.872 31.8385C89.9287 31.839 89.9005 31.8388 89.9569 31.8392C89.985 31.8395 89.971 31.8393 89.999 31.8396C90.006 31.8396 90.013 31.8397 90.02 31.8397C90.0269 31.8398 90.0339 31.8399 90.0409 31.8399C90.1509 31.8408 90.0972 31.8404 90.206 31.8413C90.2332 31.8415 90.2196 31.8414 90.2467 31.8416C90.2535 31.8417 90.2602 31.8417 90.267 31.8418C90.2737 31.8418 90.2805 31.8419 90.2872 31.842C90.3407 31.8424 90.3142 31.8422 90.3674 31.8426C90.4204 31.8431 90.3941 31.8428 90.4468 31.8433C90.473 31.8435 90.4599 31.8434 90.4861 31.8436C90.4926 31.8437 90.4991 31.8437 90.5057 31.8438C90.5122 31.8438 90.5187 31.8439 90.5252 31.8439C90.6277 31.8448 90.5779 31.8444 90.6792 31.8452C90.7045 31.8454 90.6919 31.8453 90.7171 31.8455C90.7234 31.8456 90.7297 31.8456 90.736 31.8457C90.7423 31.8457 90.7485 31.8458 90.7548 31.8458C90.8046 31.8462 90.78 31.846 90.8295 31.8465C90.8789 31.8469 90.8542 31.8467 90.9033 31.8471C90.9276 31.8473 90.9155 31.8472 90.9398 31.8474C90.9459 31.8474 90.9519 31.8475 90.958 31.8475C90.964 31.8476 90.9701 31.8476 90.9761 31.8477C91.0715 31.8485 91.0248 31.8481 91.119 31.8489C91.1424 31.849 91.1307 31.849 91.1541 31.8491C91.16 31.8492 91.1658 31.8492 91.1716 31.8493C91.1774 31.8493 91.1832 31.8494 91.189 31.8494C91.2351 31.8498 91.2124 31.8496 91.2581 31.85C91.3038 31.8504 91.281 31.8502 91.3263 31.8506C91.3489 31.8508 91.3376 31.8507 91.3601 31.8509C91.3657 31.8509 91.3713 31.8509 91.3769 31.851C91.3825 31.851 91.388 31.8511 91.3936 31.8511C91.4815 31.8519 91.4387 31.8515 91.5253 31.8522C91.547 31.8524 91.5362 31.8523 91.5577 31.8525C91.5631 31.8525 91.5684 31.8526 91.5738 31.8526C91.5791 31.8527 91.5845 31.8527 91.5898 31.8528C91.6322 31.8531 91.6113 31.8529 91.6534 31.8533C91.6953 31.8536 91.6744 31.8535 91.716 31.8538C91.7367 31.854 91.7264 31.8539 91.747 31.8541C91.7521 31.8541 91.7572 31.8541 91.7624 31.8542C91.7675 31.8542 91.7726 31.8543 91.7777 31.8543C91.8581 31.855 91.8191 31.8547 91.8983 31.8553C91.9181 31.8555 91.9082 31.8554 91.9279 31.8556C91.9328 31.8556 91.9377 31.8556 91.9426 31.8557C91.9475 31.8557 91.9524 31.8558 91.9572 31.8558C91.9959 31.8561 91.9769 31.856 92.0152 31.8563C92.0534 31.8566 92.0344 31.8564 92.0723 31.8568C92.0911 31.8569 92.0817 31.8568 92.1005 31.857C92.1051 31.857 92.1098 31.8571 92.1145 31.8571C92.1191 31.8571 92.1238 31.8572 92.1284 31.8572C92.2014 31.8578 92.1662 31.8575 92.2379 31.8581C92.2558 31.8583 92.2469 31.8582 92.2647 31.8583C92.2691 31.8584 92.2736 31.8584 92.278 31.8585C92.2824 31.8585 92.2868 31.8585 92.2913 31.8586C92.3262 31.8589 92.309 31.8587 92.3437 31.859C92.3782 31.8593 92.361 31.8591 92.3952 31.8594C92.4121 31.8596 92.4037 31.8595 92.4206 31.8596C92.4248 31.8597 92.429 31.8597 92.4332 31.8597C92.4374 31.8598 92.4416 31.8598 92.4457 31.8598C92.5114 31.8604 92.4797 31.8601 92.5441 31.8607C92.6077 31.8612 92.5764 31.8609 92.6387 31.8614C92.6695 31.8617 92.6542 31.8616 92.6846 31.8618C92.6998 31.862 92.6922 31.8619 92.7073 31.862C92.711 31.862 92.7147 31.8621 92.7185 31.8621C92.7222 31.8621 92.7259 31.8622 92.7296 31.8622C92.8435 31.8631 92.7915 31.8627 92.9004 31.8636C92.9274 31.8638 92.914 31.8637 92.9407 31.864C92.954 31.8641 92.9474 31.864 92.9605 31.8641C92.9638 31.8641 92.9671 31.8642 92.9704 31.8642C92.9736 31.8642 92.9769 31.8643 92.9801 31.8643C93.0309 31.8647 93.0067 31.8645 93.0562 31.8649C93.1051 31.8653 93.0809 31.8651 93.1286 31.8655C93.1519 31.8657 93.1404 31.8656 93.1634 31.8658C93.1748 31.8659 93.1691 31.8658 93.1804 31.8659C93.1833 31.866 93.1861 31.866 93.1889 31.866C93.1917 31.866 93.1945 31.8661 93.1973 31.8661C93.2814 31.8668 93.2442 31.8665 93.3234 31.8671C93.3431 31.8673 93.3333 31.8672 93.3527 31.8674C93.3622 31.8674 93.3575 31.8674 93.3669 31.8675C93.3693 31.8675 93.3716 31.8675 93.374 31.8675C93.3763 31.8676 93.3786 31.8676 93.381 31.8676C93.4168 31.8679 93.4002 31.8678 93.4348 31.868C93.4688 31.8683 93.4521 31.8682 93.4849 31.8685C93.5008 31.8686 93.4929 31.8685 93.5085 31.8687C93.5162 31.8687 93.5124 31.8687 93.52 31.8688C93.5219 31.8688 93.5238 31.8688 93.5257 31.8688C93.5275 31.8688 93.5294 31.8688 93.5313 31.8688C93.6302 31.8697 93.6005 31.8694 93.6797 31.8701C93.7457 31.8706 93.7226 31.8704 93.7688 31.8708C93.7853 31.871 93.7795 31.8709 93.791 31.871C93.7985 31.8711 93.7904 31.871 93.7966 31.871C93.8009 31.8711 93.794 31.871 93.798 31.8711C93.802 31.8711 93.7945 31.871 93.7984 31.8711C93.7984 31.8711 93.7984 31.8711 93.7984 31.8711C93.7985 31.8711 93.7985 31.8711 93.8068 30.8711ZM85.2064 30.7875C85.1782 32.1562 85.1642 34.2854 85.1642 37.1699H87.1642C87.1642 34.2875 87.1782 32.1755 87.206 30.8287L85.2064 30.7875ZM85.1642 37.1699C85.1642 40.0531 85.1712 42.0605 85.1853 43.1873L87.1851 43.1623C87.1712 42.0495 87.1642 40.0537 87.1642 37.1699H85.1642ZM85.1852 43.1824L85.2692 54.3103L87.2691 54.2952L87.1852 43.1673L85.1852 43.1824ZM85.3274 53.9664C85.3457 53.9152 85.3971 53.8144 85.5117 53.7284C85.6256 53.643 85.7341 53.6231 85.7827 53.6199L85.9158 55.6155C86.1743 55.5982 86.4578 55.5189 86.7117 55.3284C86.9663 55.1375 87.1226 54.8862 87.2109 54.6391L85.3274 53.9664ZM85.8635 53.6178L81.4333 53.5548L81.4048 55.5546L85.835 55.6176L85.8635 53.6178ZM80.712 53.8476L80.691 53.8686L82.1052 55.2828L82.1262 55.2618L80.712 53.8476ZM81.4132 53.5758L80.0275 53.5548L79.9972 55.5546L81.3829 55.5756L81.4132 53.5758ZM80.0123 53.5547H76.17V55.5547H80.0123V53.5547ZM76.17 53.5547C75.1322 53.5547 74.3444 53.5617 73.8125 53.576L73.8665 55.5753C74.3704 55.5617 75.1362 55.5547 76.17 55.5547V53.5547ZM74.5011 53.8258L74.1442 53.5109L72.8209 55.0106L73.1778 55.3255L74.5011 53.8258ZM74.1896 53.5536C74.2072 53.5712 74.2196 53.585 74.2223 53.588C74.2269 53.5931 74.2299 53.5966 74.2305 53.5973C74.2318 53.5988 74.2306 53.5974 74.2258 53.5917C74.2166 53.5806 74.2017 53.5625 74.1799 53.5357C74.1368 53.4826 74.074 53.4045 73.9905 53.3001L72.4287 54.5495C72.5132 54.6551 72.5798 54.7379 72.6277 54.7969C72.6494 54.8236 72.7212 54.9136 72.7754 54.9678L74.1896 53.5536ZM74.2096 53.9248C74.2096 52.7069 74.2582 49.9827 74.3563 45.7384L72.3568 45.6922C72.2589 49.9303 72.2096 52.6792 72.2096 53.9248H74.2096ZM74.3563 45.736L74.5873 34.5661L72.5877 34.5247L72.3568 45.6947L74.3563 45.736ZM74.5843 34.4657L74.5423 33.9408L72.5487 34.1003L72.5907 34.6252L74.5843 34.4657ZM74.543 33.95C74.4936 33.2503 74.4432 32.6809 74.3915 32.2483C74.3453 31.8623 74.2863 31.4657 74.1836 31.2015L72.3196 31.9264C72.3148 31.9142 72.3538 32.053 72.4056 32.4859C72.4519 32.8721 72.4995 33.405 72.548 34.091L74.543 33.95ZM74.2052 31.2628C74.1182 30.9873 73.9584 30.6997 73.6821 30.4787C73.4023 30.2549 73.0806 30.1613 72.7792 30.1454L72.6741 32.1427C72.6387 32.1408 72.5374 32.1242 72.4327 32.0404C72.3313 31.9593 72.301 31.8747 72.298 31.8651L74.2052 31.2628ZM72.8314 30.1495C72.5602 30.121 72.3204 30.1021 72.1388 30.1021V32.1021C72.2091 32.1021 72.3613 32.1111 72.622 32.1385L72.8314 30.1495ZM72.0889 30.1033L71.249 30.1453L71.3489 32.1428L72.1887 32.1008L72.0889 30.1033ZM71.3151 30.1442L66.108 30.0602L66.0758 32.0599L71.2828 32.1439L71.3151 30.1442ZM66.9863 30.6128C66.9889 30.618 66.971 30.5815 66.9469 30.477C66.9239 30.3774 66.901 30.2414 66.8811 30.0625C66.8412 29.7039 66.819 29.2211 66.819 28.6035H64.819C64.819 29.2597 64.8422 29.8232 64.8933 30.2834C64.9413 30.7151 65.0234 31.1591 65.1975 31.5073L66.9863 30.6128ZM66.8187 28.6262L66.8607 26.7786L64.8612 26.7331L64.8192 28.5808L66.8187 28.6262ZM66.861 26.7559V26.189H64.861V26.7559H66.861ZM66.8609 26.1827C66.8539 25.0618 66.8452 24.1982 66.8346 23.5942C66.8293 23.2927 66.8235 23.0515 66.817 22.8734C66.812 22.7353 66.8048 22.5459 66.7818 22.4197L64.8141 22.7775C64.8052 22.7283 64.8111 22.7463 64.8183 22.9459C64.8241 23.1055 64.8297 23.3323 64.8349 23.6292C64.8453 24.2219 64.854 25.0766 64.861 26.1952L66.8609 26.1827ZM65.798 23.5986C65.7611 23.5986 65.731 23.5964 65.7103 23.5943C65.689 23.5922 65.6718 23.5896 65.6598 23.5877C65.6367 23.5838 65.6218 23.5801 65.6184 23.5793C65.6122 23.5777 65.6207 23.5796 65.6497 23.5893L66.2822 21.6919C66.2272 21.6736 66.1657 21.6545 66.1035 21.639C66.0614 21.6285 65.9411 21.5986 65.798 21.5986V23.5986ZM65.9746 23.6406L92.7026 23.4096L92.6853 21.4097L65.9573 21.6407L65.9746 23.6406ZM92.694 23.4097C92.9467 23.4097 93.124 23.4197 93.2391 23.4337C93.2961 23.4407 93.3228 23.447 93.3273 23.4481C93.3387 23.4511 93.286 23.4398 93.2083 23.3931L94.2373 21.6782C93.9744 21.5204 93.6716 21.4718 93.4821 21.4486C93.2542 21.4207 92.9872 21.4097 92.694 21.4097V23.4097ZM93.2756 23.4301C93.152 23.3683 93.0476 23.2639 92.9858 23.1403C92.9585 23.0856 92.9453 23.0388 92.939 23.0073C92.9328 22.9764 92.9327 22.9577 92.9327 22.9556H94.9327C94.9327 22.5178 94.7655 21.939 94.17 21.6412L93.2756 23.4301ZM92.9327 22.9556V28.4985H94.9327V22.9556H92.9327ZM92.9328 28.511L92.9538 30.1907L94.9537 30.1657L94.9327 28.486L92.9328 28.511ZM105.561 21.9268V22.9268H105.569L105.577 22.9266L105.561 21.9268ZM108.228 21.8848V20.8848H108.22L108.212 20.8849L108.228 21.8848ZM111.44 22.1157L112.335 22.5629L112.44 22.3518V22.1157H111.44ZM111.398 22.3467L112.323 22.7274L112.398 22.5445V22.3467H111.398ZM110.096 26.063L111.038 26.4001L111.039 26.3958L110.096 26.063ZM109.487 27.7637L108.546 27.4266L108.542 27.437L108.539 27.4474L109.487 27.7637ZM106.905 34.9863L107.523 35.7726L107.734 35.6069L107.833 35.3577L106.905 34.9863ZM100.774 35.6792V34.6792H100.736L100.697 34.6821L100.774 35.6792ZM100.501 35.7002V36.7002H100.54L100.578 36.6973L100.501 35.7002ZM97.9396 35.5322L97.1259 36.1135L97.174 36.1808L97.2325 36.2393L97.9396 35.5322ZM97.7297 35.2383L96.7491 35.0422L96.6641 35.467L96.9159 35.8195L97.7297 35.2383ZM97.8766 34.6504L98.8402 34.9181L98.8437 34.9049L97.8766 34.6504ZM98.0236 34.0415L97.0585 33.7796L97.0497 33.8122L97.043 33.8454L98.0236 34.0415ZM98.8215 31.1021L99.7865 31.364L100.054 30.3794L99.064 30.1319L98.8215 31.1021ZM98.4435 30.9551L97.5102 30.5961L97.1645 31.4949L98.0496 31.8742L98.4435 30.9551ZM101.404 21.9478L101.321 20.9512L100.535 21.0167L100.416 21.7957L101.404 21.9478ZM107.136 34.7764L107.991 35.2953L106.336 34.1764L107.136 34.7764ZM106.779 35.3643L105.83 35.048L107.634 35.8832L106.779 35.3643ZM106.905 34.9863L106.305 34.1863L106.055 34.3738L105.956 34.6701L106.905 34.9863ZM105.577 22.9266L108.243 22.8846L108.212 20.8849L105.545 20.9269L105.577 22.9266ZM108.228 22.8848C109.293 22.8848 110.067 22.9041 110.565 22.9399C110.822 22.9584 110.966 22.9786 111.029 22.9922C111.069 23.0009 111.021 22.9953 110.94 22.9548C110.9 22.9347 110.798 22.8794 110.694 22.7677C110.581 22.6452 110.44 22.4227 110.44 22.1157H112.44C112.44 21.7895 112.291 21.5484 112.161 21.4078C112.041 21.2781 111.913 21.2053 111.839 21.1683C111.692 21.0942 111.544 21.0573 111.45 21.0372C111.245 20.993 110.988 20.9651 110.709 20.9451C110.136 20.9039 109.304 20.8848 108.228 20.8848V22.8848ZM110.546 21.6685C110.42 21.92 110.398 22.1725 110.398 22.3467H112.398C112.398 22.3434 112.399 22.3613 112.392 22.3943C112.387 22.4269 112.372 22.4881 112.335 22.5629L110.546 21.6685ZM110.473 21.9659C110.264 22.4735 110.011 23.1778 109.715 24.0671L111.612 24.6995C111.903 23.8251 112.14 23.1717 112.323 22.7274L110.473 21.9659ZM109.715 24.0671C109.42 24.9515 109.234 25.5022 109.153 25.7302L111.039 26.3958C111.127 26.1478 111.319 25.5787 111.612 24.6995L109.715 24.0671ZM109.155 25.7259L108.546 27.4266L110.429 28.1007L111.038 26.4001L109.155 25.7259ZM108.539 27.4474C107.519 30.5054 106.666 32.8918 105.976 34.6149L107.833 35.3577C108.544 33.5815 109.412 31.1528 110.436 28.0799L108.539 27.4474ZM106.287 34.2C106.199 34.2694 105.909 34.4104 105.247 34.5192C104.618 34.6224 103.77 34.6792 102.685 34.6792V36.6792C103.825 36.6792 104.793 36.6205 105.571 36.4928C106.315 36.3706 107.023 36.1652 107.523 35.7726L106.287 34.2ZM102.685 34.6792H100.774V36.6792H102.685V34.6792ZM100.697 34.6821L100.424 34.7031L100.578 36.6973L100.851 36.6763L100.697 34.6821ZM100.501 34.7002H99.0734V36.7002H100.501V34.7002ZM99.0734 34.7002C98.7722 34.7002 98.5724 34.6866 98.4536 34.669C98.394 34.6602 98.381 34.654 98.3978 34.6598C98.4076 34.6631 98.4361 34.6734 98.4753 34.695C98.5136 34.716 98.5779 34.7563 98.6467 34.8251L97.2325 36.2393C97.4157 36.4225 97.6246 36.509 97.7492 36.5517C97.8884 36.5994 98.0312 36.6282 98.1605 36.6474C98.4197 36.6858 98.7308 36.7002 99.0734 36.7002V34.7002ZM98.7534 34.951L98.5434 34.657L96.9159 35.8195L97.1259 36.1135L98.7534 34.951ZM98.7103 35.4344C98.731 35.3305 98.7723 35.1623 98.8402 34.918L96.9131 34.3827C96.841 34.6424 96.7843 34.8661 96.7491 35.0422L98.7103 35.4344ZM98.8437 34.9049C98.9151 34.6338 98.9702 34.4076 99.0042 34.2376L97.043 33.8454C97.021 33.9553 96.9782 34.1351 96.9096 34.3959L98.8437 34.9049ZM98.9887 34.3035L99.7865 31.364L97.8564 30.8401L97.0585 33.7796L98.9887 34.3035ZM99.064 30.1319C99.0911 30.1387 99.1041 30.1437 99.0935 30.14C99.0862 30.1375 99.0715 30.1322 99.0474 30.1228C98.9992 30.1041 98.9302 30.0757 98.8375 30.0359L98.0496 31.8742C98.2219 31.9481 98.4287 32.0346 98.5789 32.0722L99.064 30.1319ZM99.3769 31.3141C101.117 26.7895 102.149 23.6822 102.392 22.0998L100.416 21.7957C100.211 23.1248 99.2693 26.0223 97.5102 30.5961L99.3769 31.3141ZM101.487 22.9443C101.615 22.9336 101.808 22.9268 102.076 22.9268V20.9268C101.784 20.9268 101.529 20.9339 101.321 20.9512L101.487 22.9443ZM102.076 22.9268H105.561V20.9268H102.076V22.9268ZM106.281 34.2574L105.924 34.8453L107.634 35.8832L107.991 35.2953L106.281 34.2574ZM107.728 35.6805L107.854 35.3026L105.956 34.6701L105.83 35.048L107.728 35.6805ZM107.505 35.7863C107.633 35.6903 107.805 35.5509 107.936 35.3764L106.336 34.1764C106.353 34.154 106.366 34.1399 106.371 34.1344C106.376 34.1284 106.378 34.1272 106.374 34.1309C106.37 34.1344 106.363 34.141 106.351 34.1507C106.339 34.1604 106.324 34.1722 106.305 34.1863L107.505 35.7863ZM106.346 34.1587L106.304 34.2217L107.968 35.3311L108.01 35.2681L106.346 34.1587ZM107.968 35.3311L108.01 35.2681L106.346 34.1587L106.304 34.2217L107.968 35.3311ZM116.98 45.3374V46.3374H116.988L116.997 46.3373L116.98 45.3374ZM128.087 45.1484V44.1484H128.078L128.07 44.1486L128.087 45.1484ZM128.78 45.8623L127.845 46.2194L127.85 46.2313L127.855 46.2431L128.78 45.8623ZM129.346 46.9961L130.186 46.4536L130.185 46.4511L129.346 46.9961ZM133.924 47.311L134.524 48.111L134.529 48.1067L134.535 48.1023L133.924 47.311ZM134.281 43.9727L133.685 44.7762L133.695 44.7835L133.705 44.7905L134.281 43.9727ZM133.042 43.1748L132.531 44.0347L132.541 44.0406L132.551 44.0464L133.042 43.1748ZM131.047 42.5659L130.888 43.5532L130.89 43.5536L131.047 42.5659ZM129.619 42.314V41.314L129.303 43.2626L129.619 42.314ZM129.661 42.314V43.314L129.916 41.3469L129.661 42.314ZM128.465 41.999L128.719 41.0319L128.682 41.0221L128.643 41.0152L128.465 41.999ZM126.533 41.5371L126.841 40.5859L126.817 40.5779L126.792 40.5711L126.533 41.5371ZM119.268 38.1567L118.593 38.8945L118.597 38.8976L119.268 38.1567ZM117.967 28.1836L117.059 27.7633L117.967 28.1836ZM120.381 24.9292L119.736 24.165L119.736 24.1654L120.381 24.9292ZM141.734 23.4805V24.4805H145.178L142.27 22.636L141.734 23.4805ZM141.713 23.4805V22.4805H138.626L141.127 24.2905L141.713 23.4805ZM144.737 26.6299L143.852 27.0961L143.855 27.1011L144.737 26.6299ZM145.765 30.4302L146.472 31.1373L146.804 30.8054L146.761 30.338L145.765 30.4302ZM145.219 30.9761L145.257 31.9754L145.649 31.9605L145.927 31.6832L145.219 30.9761ZM133.903 30.4302L134.851 30.1139L133.903 30.4302ZM133.672 29.8003L132.74 30.1628L132.743 30.1717L133.672 29.8003ZM129.577 29.6323L130.118 30.4735L130.125 30.469L130.132 30.4644L129.577 29.6323ZM128.675 30.7451L127.675 30.7067L127.675 30.7259V30.7451H128.675ZM128.906 31.6479L128.066 32.1912L128.077 32.2081L128.089 32.2246L128.906 31.6479ZM130.27 32.6558L129.893 33.5819L129.908 33.5879L129.923 33.5935L130.27 32.6558ZM131.11 32.9497L130.816 33.9055L130.858 33.9183L130.901 33.9275L131.11 32.9497ZM132.013 33.1807L131.747 34.1447L131.755 34.147L131.764 34.1492L132.013 33.1807ZM132.748 33.3696L133.023 32.4081L133.01 32.4044L132.997 32.4011L132.748 33.3696ZM135.309 33.9995L135.078 34.9724L135.08 34.9729L135.309 33.9995ZM138.879 34.9653L138.571 35.9168L139.879 36.3399V34.9653H138.879ZM138.879 34.9443L139.199 33.997L137.879 33.5507V34.9443H138.879ZM144.968 38.7236L144.153 39.3042L144.159 39.3127L144.968 38.7236ZM137.052 54.3447L136.811 53.3742L136.809 53.3746L137.052 54.3447ZM131.131 55.3315V56.3315H131.178L131.224 56.3272L131.131 55.3315ZM118.428 50.5024L119.323 50.0552L119.291 49.9909L119.25 49.9318L118.428 50.5024ZM117.274 48.2349L116.311 48.5045L116.312 48.5096L117.274 48.2349ZM116.791 45.3164L117.107 44.3677L115.64 43.8788L115.796 45.417L116.791 45.3164ZM116.997 46.3373L128.104 46.1483L128.07 44.1486L116.963 44.3375L116.997 46.3373ZM128.087 46.1484C128.01 46.1484 127.933 46.131 127.865 46.0996C127.801 46.0696 127.765 46.0362 127.752 46.0234C127.741 46.0117 127.748 46.0161 127.768 46.0507C127.788 46.0847 127.815 46.139 127.845 46.2194L129.714 45.5052C129.513 44.9815 129.053 44.1484 128.087 44.1484V46.1484ZM127.855 46.2431C128.063 46.7491 128.279 47.1893 128.508 47.5411L130.185 46.4511C130.05 46.243 129.888 45.9274 129.704 45.4816L127.855 46.2431ZM128.506 47.5386C129.17 48.5666 130.249 49.0039 131.488 49.0039V47.0039C130.74 47.0039 130.39 46.7693 130.186 46.4536L128.506 47.5386ZM131.488 49.0039C132.645 49.0039 133.688 48.7378 134.524 48.111L133.324 46.511C132.928 46.8081 132.346 47.0039 131.488 47.0039V49.0039ZM134.535 48.1023C135.382 47.4479 135.847 46.5532 135.847 45.4844H133.847C133.847 45.8993 133.697 46.2224 133.312 46.5197L134.535 48.1023ZM135.847 45.4844C135.847 44.6178 135.63 43.6996 134.856 43.1549L133.705 44.7905C133.708 44.7928 133.714 44.7973 133.723 44.8097C133.733 44.8231 133.75 44.8508 133.769 44.9012C133.809 45.0072 133.847 45.1912 133.847 45.4844H135.847ZM134.876 43.1691C134.461 42.8622 134.013 42.5738 133.532 42.3032L132.551 44.0464C132.966 44.2797 133.344 44.5233 133.685 44.7762L134.876 43.1691ZM133.552 42.3149C132.945 41.9541 132.134 41.726 131.204 41.5783L130.89 43.5536C131.724 43.6858 132.243 43.8636 132.531 44.0347L133.552 42.3149ZM131.206 41.5787C130.774 41.509 130.444 41.4539 130.213 41.4132C130.097 41.3927 130.011 41.3767 129.952 41.3649C129.868 41.3482 129.887 41.349 129.936 41.3653L129.303 43.2626C129.394 43.293 129.503 43.3148 129.56 43.326C129.64 43.3422 129.743 43.3612 129.866 43.3827C130.111 43.426 130.452 43.4829 130.888 43.5532L131.206 41.5787ZM129.619 43.314H129.661V41.314H129.619V43.314ZM129.916 41.3469L128.719 41.0319L128.21 42.9661L129.407 43.281L129.916 41.3469ZM128.643 41.0152C127.9 40.88 127.303 40.7356 126.841 40.5859L126.224 42.4883C126.799 42.6746 127.489 42.8381 128.286 42.9829L128.643 41.0152ZM126.792 40.5711C123.505 39.691 121.264 38.616 119.94 37.4159L118.597 38.8976C120.268 40.413 122.87 41.5916 126.274 42.5031L126.792 40.5711ZM119.943 37.419C118.697 36.2783 118.043 34.7355 118.043 32.6768H116.043C116.043 35.2092 116.872 37.3196 118.593 38.8945L119.943 37.419ZM118.043 32.6768C118.043 31.1364 118.327 29.785 118.874 28.6039L117.059 27.7633C116.374 29.2417 116.043 30.8858 116.043 32.6768H118.043ZM118.874 28.6039C119.436 27.3896 120.157 26.4275 121.027 25.693L119.736 24.1654C118.617 25.1105 117.729 26.3181 117.059 27.7633L118.874 28.6039ZM121.026 25.6934C123.661 23.4698 127.366 22.2969 132.265 22.2969V20.2969C127.058 20.2969 122.84 21.5455 119.736 24.165L121.026 25.6934ZM132.265 22.2969C136.178 22.2969 139.122 23.0084 141.199 24.325L142.27 22.636C139.755 21.0411 136.387 20.2969 132.265 20.2969V22.2969ZM141.734 22.4805H141.713V24.4805H141.734V22.4805ZM141.127 24.2905C142.534 25.3089 143.406 26.2507 143.852 27.0961L145.621 26.1636C144.975 24.9374 143.832 23.7796 142.299 22.6704L141.127 24.2905ZM143.855 27.1011C144.321 27.9751 144.638 29.1041 144.77 30.5224L146.761 30.338C146.612 28.7328 146.243 27.3283 145.619 26.1587L143.855 27.1011ZM145.058 29.7231L144.512 30.269L145.927 31.6832L146.472 31.1373L145.058 29.7231ZM145.181 29.9768C141.509 30.1164 138.261 30.186 135.435 30.186V32.186C138.292 32.186 141.567 32.1157 145.257 31.9754L145.181 29.9768ZM135.435 30.186C135.092 30.186 134.921 30.133 134.854 30.1002C134.827 30.0867 134.827 30.0816 134.837 30.0927C134.848 30.1049 134.852 30.1159 134.851 30.1139L132.954 30.7464C133.334 31.887 134.455 32.186 135.435 32.186V30.186ZM134.851 30.1139C134.775 29.885 134.691 29.6567 134.6 29.4289L132.743 30.1717C132.82 30.3639 132.89 30.5554 132.954 30.7464L134.851 30.1139ZM134.604 29.4378C134.381 28.8651 133.926 28.5058 133.424 28.3049C132.943 28.1126 132.377 28.0444 131.782 28.0444V30.0444C132.251 30.0444 132.532 30.1022 132.681 30.1619C132.808 30.2129 132.766 30.2316 132.74 30.1627L134.604 29.4378ZM131.782 28.0444H131.698V30.0444H131.782V28.0444ZM131.698 28.0444C130.709 28.0444 129.801 28.2813 129.023 28.8003L130.132 30.4644C130.529 30.1995 131.035 30.0444 131.698 30.0444V28.0444ZM129.037 28.7911C128.411 29.1935 127.71 29.8111 127.675 30.7067L129.674 30.7836C129.67 30.8764 129.631 30.8938 129.687 30.824C129.748 30.7496 129.876 30.6291 130.118 30.4735L129.037 28.7911ZM127.675 30.7451C127.675 31.2476 127.781 31.7512 128.066 32.1912L129.745 31.1047C129.722 31.0688 129.675 30.9705 129.675 30.7451H127.675ZM128.089 32.2246C128.3 32.5236 128.541 32.7925 128.821 33.0075L130.04 31.4222C129.956 31.3573 129.847 31.2482 129.722 31.0713L128.089 32.2246ZM128.821 33.0075C129.108 33.2288 129.486 33.4159 129.893 33.5819L130.648 31.7297C130.299 31.5877 130.116 31.4808 130.04 31.4222L128.821 33.0075ZM129.923 33.5935C130.304 33.7345 130.606 33.8407 130.816 33.9055L131.404 31.9939C131.251 31.9467 130.993 31.857 130.618 31.718L129.923 33.5935ZM130.901 33.9275C131.067 33.9631 131.344 34.0335 131.747 34.1447L132.279 32.2167C131.87 32.1039 131.546 32.0203 131.32 31.9719L130.901 33.9275ZM131.764 34.1492L132.499 34.3381L132.997 32.4011L132.262 32.2122L131.764 34.1492ZM132.473 34.3312C132.794 34.4229 133.675 34.639 135.078 34.9724L135.541 33.0266C134.116 32.6881 133.289 32.4843 133.023 32.4081L132.473 34.3312ZM135.08 34.9729C136.492 35.3052 137.654 35.6201 138.571 35.9168L139.186 34.0139C138.2 33.6947 136.982 33.3657 135.538 33.0261L135.08 34.9729ZM139.879 34.9653V34.9443H137.879V34.9653H139.879ZM138.558 35.8917C141.465 36.8743 143.256 38.0462 144.153 39.3042L145.782 38.1431C144.523 36.3776 142.255 35.03 139.199 33.997L138.558 35.8917ZM144.159 39.3127C145.116 40.6254 145.605 42.1649 145.605 43.9727H147.605C147.605 41.7772 147.002 39.8173 145.776 38.1346L144.159 39.3127ZM145.605 43.9727C145.605 46.4245 144.88 48.369 143.481 49.888C142.065 51.4261 139.878 52.6125 136.811 53.3742L137.293 55.3152C140.595 54.4952 143.185 53.1621 144.952 51.2429C146.738 49.3045 147.605 46.8538 147.605 43.9727H145.605ZM136.809 53.3746C135.016 53.823 133.093 54.1441 131.038 54.3359L131.224 56.3272C133.369 56.127 135.393 55.7903 137.295 55.3149L136.809 53.3746ZM131.131 54.3315C128.655 54.3315 126.204 53.9684 123.776 53.2399L123.201 55.1556C125.812 55.9388 128.456 56.3315 131.131 56.3315V54.3315ZM123.776 53.2399C121.418 52.5324 120.012 51.4344 119.323 50.0552L117.534 50.9497C118.552 52.9859 120.52 54.3513 123.201 55.1556L123.776 53.2399ZM119.25 49.9318C118.715 49.1622 118.391 48.5068 118.235 47.9601L116.312 48.5096C116.548 49.3347 116.994 50.191 117.607 51.0731L119.25 49.9318ZM118.237 47.9652C118.063 47.3463 117.909 46.439 117.786 45.2158L115.796 45.417C115.924 46.6854 116.092 47.7237 116.311 48.5045L118.237 47.9652ZM116.475 46.2651C116.673 46.3312 116.867 46.3374 116.98 46.3374V44.3374C116.964 44.3374 116.965 44.3366 116.98 44.3383C116.988 44.3392 117.002 44.341 117.022 44.345C117.042 44.3489 117.071 44.3557 117.107 44.3677L116.475 46.2651Z" fill="black"/>
<path d="M60.4336 101.81C59.9854 105.765 58.9438 109.271 57.3091 112.33C55.6743 115.362 53.5781 117.841 51.0205 119.766C48.4629 121.664 45.5493 123.101 42.2798 124.077C39.0366 125.052 35.4902 125.54 31.6406 125.54C28.0547 125.54 24.7852 125.145 21.832 124.354C18.8789 123.589 16.3872 122.561 14.3569 121.269C12.3267 119.977 10.5337 118.408 8.97803 116.562C7.42236 114.69 6.18311 112.778 5.26025 110.827C4.3374 108.85 3.58594 106.701 3.00586 104.38C2.45215 102.034 2.06982 99.8584 1.85889 97.8545C1.67432 95.8242 1.58203 93.7148 1.58203 91.5264V88.0459C1.8457 84.1963 2.74219 80.7422 4.27148 77.6836C5.80078 74.5986 7.65967 72.1201 9.84814 70.248C12.0366 68.3496 14.5415 66.7808 17.3628 65.5415C20.1841 64.2759 22.9263 63.4058 25.5894 62.9312C28.2524 62.4302 30.9023 62.1797 33.5391 62.1797C37.7842 62.1797 41.5283 62.6938 44.7715 63.7222C48.041 64.7241 50.7041 66.1479 52.7607 67.9937C54.8174 69.8394 56.4258 71.9619 57.5859 74.3613C58.7461 76.7344 59.4844 79.3975 59.8008 82.3506V86.1475C59.8008 86.9912 56.9004 87.4131 51.0996 87.4131C49.7285 87.4131 47.8169 87.3867 45.3647 87.334C42.939 87.2812 41.3438 87.2549 40.5791 87.2549C40.4473 87.2549 40.2495 87.2681 39.9858 87.2944C39.7222 87.3208 39.5244 87.334 39.3926 87.334C38.707 87.334 38.1797 87.0571 37.8105 86.5034C37.4678 85.9233 37.2305 85.2246 37.0986 84.4072C36.9932 83.5898 36.8481 82.7725 36.6636 81.9551C36.5054 81.1377 36.1494 80.4521 35.5957 79.8984C35.0684 79.3184 34.3301 79.0283 33.3809 79.0283C32.4316 79.0283 31.6011 79.1865 30.8892 79.5029C30.1772 79.8193 29.6104 80.3203 29.1885 81.0059C28.7666 81.665 28.4106 82.3374 28.1206 83.0229C27.8569 83.7085 27.6592 84.605 27.5273 85.7124C27.4219 86.7935 27.3428 87.7163 27.29 88.481C27.2637 89.2192 27.2373 90.2212 27.2109 91.4868C27.1846 92.7261 27.1582 93.6357 27.1318 94.2158C27.1318 94.5322 27.1055 95.1123 27.0527 95.9561C27 96.7998 26.9736 97.4854 26.9736 98.0127C26.9736 104.578 28.7139 107.953 32.1943 108.138C33.1436 108.138 33.9214 107.795 34.5278 107.109C35.1343 106.424 35.543 105.659 35.7539 104.815C35.9912 103.972 36.2549 103.088 36.5449 102.166C36.835 101.216 37.1514 100.57 37.4941 100.228H59.0098C59.8799 100.307 60.3545 100.834 60.4336 101.81ZM68.9702 93.2666V88.916C69.2339 85.2246 70.0381 81.8628 71.3828 78.8306C72.7276 75.772 74.4282 73.2012 76.4849 71.1182C78.5679 69.0352 80.9673 67.2817 83.6831 65.8579C86.3989 64.4077 89.2334 63.353 92.1865 62.6938C95.166 62.0347 98.2378 61.7051 101.402 61.7051C103.142 61.7051 104.948 61.8501 106.82 62.1401C108.719 62.4302 110.723 62.8916 112.832 63.5244C114.941 64.1572 116.959 65.0933 118.883 66.3325C120.834 67.5454 122.443 68.9824 123.709 70.6436C126.319 73.834 128.204 77.1826 129.364 80.6895C130.551 84.1699 131.144 88.0459 131.144 92.3174C131.223 101.229 129.272 108.401 125.291 113.833L123.55 116.206C122.021 118.315 119.833 120.082 116.985 121.506C114.137 122.903 111.29 123.866 108.442 124.393C105.594 124.947 102.72 125.224 99.8198 125.224C96.4185 125.224 93.2808 124.881 90.4068 124.195C87.5327 123.51 85.0542 122.587 82.9712 121.427C80.8882 120.267 79.0293 118.856 77.3946 117.195C75.7598 115.534 74.4151 113.78 73.3604 111.935C72.3321 110.089 71.4751 108.085 70.7896 105.923C70.1304 103.761 69.6558 101.651 69.3657 99.5947C69.1021 97.5381 68.9702 95.4287 68.9702 93.2666ZM100.453 77.6045C99.3716 77.6045 98.396 77.855 97.5259 78.356C96.6822 78.8569 95.9834 79.4634 95.4297 80.1753C94.9024 80.8872 94.4409 81.8496 94.0454 83.0625C93.6499 84.249 93.3599 85.3301 93.1753 86.3057C92.9907 87.2549 92.8457 88.4678 92.7403 89.9443C92.6348 91.3945 92.5689 92.5283 92.5425 93.3457C92.5425 94.1367 92.5425 95.165 92.5425 96.4307C92.5425 97.6436 92.5821 98.8037 92.6612 99.9111C92.7666 100.992 92.9644 102.152 93.2544 103.392C93.5708 104.604 93.9663 105.672 94.4409 106.595C94.9419 107.492 95.6143 108.256 96.458 108.889C97.3281 109.496 98.3169 109.825 99.4243 109.878C100.584 109.878 101.613 109.693 102.509 109.324C103.406 108.929 104.157 108.441 104.764 107.861C105.37 107.254 105.884 106.45 106.306 105.448C106.728 104.446 107.044 103.484 107.255 102.561C107.493 101.638 107.664 100.491 107.77 99.1201C107.901 97.749 107.98 96.5757 108.007 95.6001C108.033 94.5981 108.046 93.3457 108.046 91.8428C108.046 90.7354 108.007 89.707 107.928 88.7578C107.875 87.8086 107.77 86.7539 107.611 85.5938C107.453 84.4336 107.189 83.4185 106.82 82.5483C106.451 81.6519 106.003 80.8213 105.476 80.0566C104.948 79.2656 104.25 78.6592 103.379 78.2373C102.536 77.8154 101.56 77.6045 100.453 77.6045Z" fill="#FFA800"/>
<rect x="144.273" y="44.8088" width="100" height="81" rx="3" transform="rotate(10 144.273 44.8088)" fill="#FF9900"/>
<path d="M222.007 118.637C221.925 119.104 221.823 119.836 221.701 120.832C221.583 121.802 221.46 122.73 221.33 123.618C221.2 124.505 221.039 125.494 220.847 126.585C220.685 127.654 220.475 128.621 220.215 129.485C219.986 130.329 219.712 131.124 219.393 131.871C219.078 132.592 218.69 133.125 218.227 133.472C217.79 133.824 217.299 133.951 216.754 133.855L198.993 130.723C197.916 129.543 197.924 125.849 199.019 119.643C199.417 117.384 199.908 114.673 200.493 111.51C201.082 108.32 201.496 106.051 201.734 104.7L202.214 101.974C202.256 101.74 202.308 101.294 202.37 100.636C202.463 99.9562 202.555 99.4369 202.645 99.0779C200.942 102.66 198.72 107.824 195.978 114.569C193.235 121.314 191.37 125.818 190.382 128.081C189.994 128.762 188.736 128.915 186.607 128.539L172.818 126.108C171.13 125.81 170.222 125.195 170.092 124.262L169.223 107.321C169.179 105.6 169.107 103.807 169.007 101.942C168.933 100.082 168.825 97.9607 168.683 95.5795C168.541 93.1983 168.436 91.4395 168.368 90.3031C166.592 98.5575 165.319 104.866 164.55 109.228L163.341 116.083C162.801 119.148 162.419 121.463 162.196 123.03C161.94 123.574 161.604 123.809 161.188 123.736L157.527 123.09C155.995 122.82 153.746 122.437 150.782 121.941C147.817 121.445 145.569 121.062 144.037 120.792C142.634 120.545 141.974 120.188 142.057 119.72L152.249 61.9185C152.29 61.6848 152.376 61.4992 152.508 61.3617C152.67 61.2028 152.874 61.105 153.122 61.0683C153.4 61.0102 153.66 60.9758 153.903 60.9651C154.146 60.9544 154.449 60.9811 154.812 61.0452C155.181 61.0833 155.481 61.123 155.715 61.1642C155.953 61.1794 156.252 61.2321 156.611 61.3222C156.975 61.3863 157.208 61.4275 157.312 61.4458L161.908 62.2562C169.309 63.5611 174.497 64.583 177.472 65.3218C180.474 66.0653 182.779 66.5789 184.389 66.8628C184.399 70.4522 184.475 75.7935 184.616 82.8868L184.843 98.9108L196.624 68.5382C196.624 68.5382 196.723 68.5825 196.922 68.671C197.121 68.7596 197.272 68.813 197.376 68.8313C200.154 69.3212 204.264 70.0057 209.704 70.8848C215.145 71.7638 219.255 72.4483 222.033 72.9382L227.798 73.9546C228.511 74.1607 228.746 74.9519 228.504 76.3281C224.638 101.59 222.473 115.693 222.007 118.637Z" fill="white"/>
<path d="M167.533 53.9872L182.03 33.9455C189.691 23.3543 206.132 25.9213 210.2 38.3438L218.251 62.9301" stroke="#5E5340" stroke-width="4"/>
<circle cx="168.257" cy="55.638" r="4.5" transform="rotate(10 168.257 55.638)" fill="white"/>
<circle cx="217.497" cy="64.3204" r="4.5" transform="rotate(10 217.497 64.3204)" fill="white"/>
<path d="M245.113 117.63V64.9482C245.113 64.7637 245.192 64.6055 245.351 64.4736C245.535 64.3418 245.812 64.2495 246.181 64.1968C246.55 64.144 246.867 64.1045 247.13 64.0781C247.42 64.0518 247.816 64.0386 248.317 64.0386C248.844 64.0122 249.2 63.999 249.385 63.999H281.5C284.137 63.999 286.628 64.4209 288.975 65.2646C291.322 66.082 293.405 67.2817 295.224 68.8638C297.043 70.4458 298.48 72.4893 299.535 74.9941C300.59 77.499 301.117 80.3203 301.117 83.458C301.117 85.7783 300.84 87.9009 300.287 89.8257C299.759 91.7505 299.047 93.3984 298.151 94.7695C297.281 96.1143 296.2 97.3271 294.908 98.4082C293.642 99.4893 292.337 100.359 290.992 101.019C289.674 101.678 288.21 102.245 286.602 102.719C284.994 103.167 283.504 103.497 282.133 103.708C280.788 103.919 279.364 104.077 277.861 104.183H270.268C270.057 108.322 269.951 112.963 269.951 118.104V122.534C269.872 123.483 269.424 123.958 268.606 123.958H246.142C245.456 122.139 245.113 120.029 245.113 117.63ZM267.42 89.9443L268.686 91.6846C269.767 91.6846 270.795 91.6055 271.771 91.4473C272.772 91.2891 273.748 91.0122 274.697 90.6167C275.646 90.2212 276.464 89.7202 277.149 89.1138C277.835 88.481 278.389 87.6899 278.811 86.7407C279.232 85.7651 279.443 84.6709 279.443 83.458C279.443 82.5352 279.312 81.7178 279.048 81.0059C278.811 80.2676 278.507 79.6743 278.138 79.2261C277.795 78.7515 277.308 78.3428 276.675 78C276.068 77.6572 275.488 77.4067 274.935 77.2485C274.407 77.064 273.722 76.9321 272.878 76.853C272.061 76.7476 271.375 76.6948 270.821 76.6948C270.294 76.6685 269.608 76.6553 268.765 76.6553C267.868 77.0771 267.42 81.5068 267.42 89.9443ZM299.924 123.009C301.559 116.971 303.365 110.84 305.343 104.618C307.32 98.395 309.772 90.9595 312.699 82.311C315.652 73.6362 317.669 67.6377 318.751 64.3154C319.067 63.7881 319.278 63.4717 319.383 63.3662H326.028C327.584 63.3662 329.877 63.3398 332.91 63.2871C335.942 63.2344 338.236 63.208 339.792 63.208H346.436C346.832 63.208 347.161 63.2212 347.425 63.2476C347.688 63.2476 348.005 63.2739 348.374 63.3267C348.743 63.3794 349.033 63.4585 349.244 63.564C349.481 63.6694 349.679 63.8276 349.837 64.0386C349.996 64.2495 350.075 64.5 350.075 64.79L368.308 122.574C368.308 123.101 368.11 123.457 367.714 123.642C367.345 123.853 366.633 123.958 365.579 123.958H361.94C360.885 123.958 359.316 123.971 357.233 123.998C355.15 124.024 353.582 124.037 352.527 124.037C352.21 124.037 351.564 124.05 350.589 124.077C349.64 124.129 348.835 124.143 348.176 124.116C347.517 124.116 346.779 124.077 345.961 123.998C345.17 123.945 344.524 123.8 344.023 123.562C343.549 123.352 343.246 123.062 343.114 122.692V120.082C342.85 118.764 342.389 117.551 341.73 116.443C341.07 115.336 340.372 114.782 339.633 114.782H326.028L323.971 123.167C323.681 123.8 322.205 124.116 319.542 124.116H316.377C315.244 124.116 313.556 124.156 311.315 124.235C309.074 124.314 307.386 124.354 306.252 124.354H305.145C304.723 124.354 304.051 124.367 303.128 124.393C302.231 124.419 301.533 124.433 301.032 124.433C300.821 124.222 300.452 123.747 299.924 123.009ZM327.373 99.0015L328.48 100.86H331.09C333.2 100.86 335.125 100.742 336.865 100.504C338.631 100.241 339.515 99.832 339.515 99.2783L334.413 76.4971C333.938 76.4971 333.292 77.3936 332.475 79.1865C331.684 80.9795 331.038 83.0098 330.537 85.2773L327.373 99.0015ZM434.47 123.167C433.89 123.747 432.664 124.09 430.792 124.195C428.946 124.301 426.665 124.274 423.949 124.116C421.233 123.958 419.783 123.879 419.599 123.879C417.806 123.879 416.514 123.853 415.723 123.8H411.768C411.188 123.615 410.7 122.758 410.304 121.229C409.909 119.673 409.513 117.458 409.118 114.584C408.749 111.684 408.551 110.142 408.524 109.957C408.419 107.347 407.997 105.633 407.259 104.815C406.521 103.972 405.176 103.55 403.225 103.55H401.484V122.851C401.432 123.167 401.155 123.431 400.654 123.642C400.153 123.853 399.428 123.984 398.479 124.037C397.556 124.116 396.725 124.156 395.987 124.156C395.275 124.182 394.326 124.182 393.139 124.156C391.953 124.129 391.228 124.116 390.964 124.116H385.269C382.052 124.116 379.626 124.143 377.991 124.195C377.622 124.037 377.253 123.853 376.884 123.642V64.6318C376.884 63.8936 377.939 63.5244 380.048 63.5244H414.536C420.522 63.6826 425.07 65.1064 428.181 67.7959C431.319 70.4854 432.888 74.2822 432.888 79.1865C432.888 85.5674 429.671 90.2344 423.237 93.1875C424.424 93.5566 425.492 94.0708 426.441 94.73C427.39 95.3892 428.181 96.1011 428.814 96.8657C429.447 97.604 430.001 98.5005 430.475 99.5552C430.95 100.61 431.319 101.599 431.583 102.521C431.846 103.444 432.07 104.539 432.255 105.804C432.466 107.07 432.611 108.164 432.69 109.087C432.769 110.01 432.861 111.117 432.967 112.409C433.099 113.675 433.204 114.677 433.283 115.415V118.896C433.362 119.317 433.6 119.911 433.995 120.675C434.417 121.44 434.681 122.007 434.786 122.376C434.786 122.903 434.681 123.167 434.47 123.167ZM401.247 80.2939C401.247 81.876 401.26 83.0493 401.287 83.814C401.313 84.5786 401.458 85.5806 401.722 86.8198C401.985 88.0591 402.381 88.9424 402.908 89.4697C404.016 89.4697 405.057 89.3511 406.033 89.1138C407.035 88.8765 407.997 88.4941 408.92 87.9668C409.843 87.4395 410.568 86.6616 411.095 85.6333C411.649 84.5786 411.926 83.3262 411.926 81.876C411.926 81.0586 411.781 80.3467 411.491 79.7402C411.201 79.1074 410.779 78.6064 410.225 78.2373C409.671 77.8682 409.118 77.5781 408.564 77.3672C408.037 77.1299 407.377 76.9717 406.586 76.8926C405.822 76.7871 405.215 76.7212 404.767 76.6948C404.319 76.6685 403.778 76.6553 403.146 76.6553H402.196C401.801 76.8398 401.537 77.209 401.405 77.7627C401.3 78.3164 401.247 79.1602 401.247 80.2939ZM444.905 121.585V120.082C444.905 115.573 444.958 108.916 445.063 100.109C445.169 91.3022 445.221 84.6445 445.221 80.1357V63.7617H491.258V76.7344C491.258 76.8135 491.258 77.0112 491.258 77.3276C491.258 77.644 491.258 77.855 491.258 77.9604C491.258 78.0659 491.245 78.2637 491.219 78.5537C491.192 78.8174 491.14 79.002 491.061 79.1074C491.008 79.2129 490.916 79.3711 490.784 79.582C490.678 79.7666 490.546 79.8984 490.388 79.9775C490.23 80.0566 490.019 80.1357 489.755 80.2148C489.492 80.2676 489.202 80.2939 488.885 80.2939H487.778C480.949 80.2939 474.726 80.1885 469.11 79.9775C469.057 80.3994 468.965 81.0586 468.833 81.9551C468.728 82.8252 468.635 83.603 468.556 84.2886C468.503 84.9478 468.477 85.5938 468.477 86.2266H487.303C488.094 86.2266 488.622 86.332 488.885 86.543C489.149 86.7539 489.281 87.0967 489.281 87.5713C489.281 87.7031 489.268 87.9141 489.241 88.2041C489.215 88.4941 489.202 88.7051 489.202 88.8369C489.202 90.1025 489.241 91.9746 489.32 94.4531C489.399 96.9316 489.439 98.8037 489.439 100.069C489.36 100.597 489.149 100.86 488.806 100.86C488.648 100.86 488.516 100.808 488.411 100.702C480.079 101.124 473.909 101.335 469.901 101.335H468.873V107.03C471.219 107.03 474.607 106.925 479.037 106.714C483.493 106.503 486.829 106.397 489.044 106.397C490.784 106.397 491.786 106.767 492.049 107.505V110.511C492.049 111.776 492.076 113.648 492.128 116.127C492.181 118.605 492.208 120.478 492.208 121.743C492.208 123.062 491.68 123.721 490.626 123.721C489.254 123.721 487.145 123.708 484.297 123.681C481.45 123.655 479.288 123.642 477.811 123.642C474.014 123.642 468.583 123.734 461.516 123.918C454.45 124.129 449.335 124.248 446.17 124.274L445.063 123.009C444.958 122.271 444.905 121.796 444.905 121.585Z" fill="#FFA800"/>
</svg>
